<?xml version="1.0" standalone="no"?>
<!DOCTYPE svg PUBLIC "-//W3C//DTD SVG 1.1//EN" "http://www.w3.org/Graphics/SVG/1.1/DTD/svg11.dtd" >
<svg xmlns="http://www.w3.org/2000/svg" xmlns:xlink="http://www.w3.org/1999/xlink" version="1.1">
<metadata>
Created by FontForge 20170731 at Sat Aug  4 21:40:49 2012
 By Aleksey,,,
Copyright (c) 2012 by IRAN FONT. All rights reserved.
</metadata>
<defs>
<font id="ARezvan-fat" horiz-adv-x="0" >
  <font-face 
    font-family="A Rezvan-fat"
    font-weight="400"
    font-stretch="normal"
    units-per-em="2048"
    panose-1="1 0 5 0 0 0 0 2 0 2"
    ascent="1638"
    descent="-410"
    bbox="-258 -1044 2358 1841"
    underline-thickness="143"
    underline-position="-426"
    unicode-range="U+000D-FEFC"
  />
<missing-glyph horiz-adv-x="1229" 
d="M102 -362v1806h1024v-1806h-1024zM1012 1329h-795v-1577h795v1577z" />
    <glyph glyph-name="uni0627_uni064B.fina" unicode="&#xfe8e;&#x64b;" horiz-adv-x="364" arabic-form="final" 
d="M199 1101h1v-747q0 -123 40 -151q32 -23 123 -23v-180q-142 0 -226 46q-117 64 -117 229v826h1v14q0 17 11 28q12 12 28 12h101q19 0 31 -17q7 -11 7 -22v-15zM289 917l-316 -172l-27 50l315 174zM288 800l-315 -168l-28 47l315 173z" />
    <glyph glyph-name="uni0627_uni064B.isol" unicode="&#xfe8d;&#x64b;" horiz-adv-x="400" arabic-form="isolated" 
d="M291 37q0 -19 -18 -32q-9 -6 -25 -6h-93q-30 0 -40 28q-2 7 -2 13v1071q0 17 11 28q12 12 28 12h101q19 0 31 -17q7 -11 7 -22v-1075zM374 885l-316 -172l-27 50l315 174zM373 768l-315 -168l-28 47l315 173z" />
    <glyph glyph-name="uni0644_uni0622.isol" unicode="&#xfedf;&#xfe82;" horiz-adv-x="900" arabic-form="isolated" 
d="M310 354q0 -111 30.5 -142.5t90.5 -31.5h138q79 0 106 43q15 24 15 131v759q-1 17 10 28q12 12 28 12h100q19 0 31 -17q7 -11 7 -22v-839q0 -130 -77.5 -202.5t-208.5 -72.5h-149q-301 0 -301 275l1 838q0 16 11 27q12 12 27 12h104q18 0 30 -17q7 -10 7 -21v-760z
M112 1400h415q1 0 1 -1v-146q0 -2 -1 -2h-325q-108 0 -145 -15q-28 -9 -46 -21q-31 -25 -40 -48q-9 -18 -17 -38l-2 -1l-151 55l-1 1q26 57 69 114q37 41 51 49q71 53 192 53z" />
    <glyph glyph-name="uni0644_uni0622.fina" unicode="&#xfee0;&#xfe82;" horiz-adv-x="1000" arabic-form="final" 
d="M278 354q0 -121 34 -154q20 -20 81 -20h154q78 0 105 43q16 26 16 131v762q3 30 31 40q6 2 12 2h96q17 0 28 -10q13 -12 13 -28v-784q0 -156 159 -156v-180q-137 0 -226 118q-90 -118 -223 -118h-165q-291 0 -291 275v843q2 17 13 28q12 12 28 12h101q19 0 31 -17
q5 -11 5 -22zM82 1400h415q1 0 1 -1v-146q0 -2 -1 -2h-325q-108 0 -145 -15q-28 -9 -46 -21q-31 -25 -40 -48q-9 -18 -17 -38l-2 -1l-151 55l-1 1q26 57 69 114q37 41 51 49q71 53 192 53z" />
    <glyph glyph-name="uni0644_uni0623.isol" unicode="&#xfedf;&#xfe84;" horiz-adv-x="900" arabic-form="isolated" 
d="M311 354q0 -111 30.5 -142.5t90.5 -31.5h138q79 0 106 43q15 24 15 131v759q-1 17 10 28q12 12 28 12h100q19 0 31 -17q7 -11 7 -22v-839q0 -130 -77.5 -202.5t-208.5 -72.5h-149q-301 0 -301 275l1 838q0 16 11 27q12 12 27 12h104q18 0 30 -17q7 -10 7 -21v-760z
M227 1548q47 0 98 -30q-26 -51 -33 -66q-39 22 -63 22h-5q-34 0 -58 -31q-8 -15 -8 -30v-3q0 -33 29 -59q17 -12 36 -12h1q40 0 138 52h1l37 -76l-290 -145q-29 55 -35 69l74 40v1q-63 41 -63 119q0 62 42 107q43 42 99 42z" />
    <glyph glyph-name="uni0644_uni0623.fina" unicode="&#xfee0;&#xfe84;" horiz-adv-x="1047" arabic-form="final" 
d="M327 354q0 -121 34 -154q20 -20 81 -20h154q78 0 105 43q16 26 16 131v762q3 30 31 40q6 2 12 2h96q17 0 28 -10q13 -12 13 -28v-784q0 -156 159 -156v-180q-137 0 -226 118q-90 -118 -223 -118h-165q-291 0 -291 275v843q2 17 13 28q12 12 28 12h101q19 0 31 -17
q5 -11 5 -22zM246 1548q47 0 98 -30q-26 -51 -33 -66q-39 22 -63 22h-5q-34 0 -58 -31q-8 -15 -8 -30v-3q0 -33 29 -59q17 -12 36 -12h1q40 0 138 52h1l37 -76l-290 -145q-29 55 -35 69l74 40v1q-63 41 -63 119q0 62 42 107q43 42 99 42z" />
    <glyph glyph-name="uni0644_uni0625.isol" unicode="&#xfedf;&#xfe88;" horiz-adv-x="900" arabic-form="isolated" 
d="M321 354q0 -111 30.5 -142.5t90.5 -31.5h138q79 0 106 43q15 24 15 131v759q-1 17 10 28q12 12 28 12h100q19 0 31 -17q7 -11 7 -22v-839q0 -130 -77.5 -202.5t-208.5 -72.5h-149q-301 0 -301 275l1 838q0 16 11 27q12 12 27 12h104q18 0 30 -17q7 -10 7 -21v-760z
M286 -56q47 0 98 -30q-26 -51 -33 -66q-39 22 -63 22h-5q-34 0 -58 -31q-8 -15 -8 -30v-3q0 -33 29 -59q17 -12 36 -12h1q40 0 138 52h1l37 -76l-290 -145q-29 55 -35 69l74 40v1q-63 41 -63 119q0 62 42 107q43 42 99 42z" />
    <glyph glyph-name="uni0644_uni0625.fina" unicode="&#xfee0;&#xfe88;" horiz-adv-x="1052" arabic-form="final" 
d="M332 354q0 -121 34 -154q20 -20 81 -20h154q78 0 105 43q16 26 16 131v762q3 30 31 40q6 2 12 2h96q17 0 28 -10q13 -12 13 -28v-784q0 -156 159 -156v-180q-137 0 -226 118q-90 -118 -223 -118h-165q-291 0 -291 275v843q2 17 13 28q12 12 28 12h101q19 0 31 -17
q5 -11 5 -22zM315 -61q47 0 98 -30q-26 -51 -33 -66q-39 22 -63 22h-5q-34 0 -58 -31q-8 -15 -8 -30v-3q0 -33 29 -59q17 -12 36 -12h1q40 0 138 52h1l37 -76l-290 -145q-29 55 -35 69l74 40v1q-63 41 -63 119q0 62 42 107q43 42 99 42z" />
    <glyph glyph-name="uniFEFB" unicode="&#xfedf;&#xfe8e;" horiz-adv-x="941" arabic-form="isolated" 
d="M279 354q0 -111 30.5 -142.5t90.5 -31.5h138q79 0 106 43q15 24 15 131v759q-1 17 10 28q12 12 28 12h100q19 0 31 -17q7 -11 7 -22v-839q0 -130 -77.5 -202.5t-208.5 -72.5h-149q-301 0 -301 275l1 838q0 16 11 27q12 12 27 12h104q18 0 30 -17q7 -10 7 -21v-760z" />
    <glyph glyph-name="uniFEFC" unicode="&#xfee0;&#xfe8e;" horiz-adv-x="1000" arabic-form="final" 
d="M277 354q0 -121 34 -154q20 -20 81 -20h154q78 0 105 43q16 26 16 131v762q3 30 31 40q6 2 12 2h96q17 0 28 -10q13 -12 13 -28v-784q0 -156 159 -156v-180q-137 0 -226 118q-90 -118 -223 -118h-165q-291 0 -291 275v843q2 17 13 28q12 12 28 12h101q19 0 31 -17
q5 -11 5 -22z" />
    <glyph glyph-name="uni0647_uni0654.isol" unicode="&#xfee9;&#x654;" horiz-adv-x="800" 
d="M798 305q0 -140 -107 -234q-103 -91 -245 -91q-147 0 -241.5 100.5t-94.5 248.5q0 154 153 307l122 122l329 -230q84 -87 84 -223zM550 1255q-56 19 -102 19q-32 0 -57 -8t-42 -20.5t-26 -29.5t-9 -37q0 -12 9.5 -20.5t25.5 -14t36 -9t41 -3.5q27 0 69 12l31 -83
q-42 -30 -81.5 -51.5t-80.5 -36t-86.5 -23.5t-100.5 -13l-6 101q42 3 76.5 8t63.5 12q-34 19 -55 49t-21 72q0 40 14.5 75.5t41.5 62t67 42.5t90 16q57 0 127 -23z" />
    <glyph glyph-name="uni0647_uni0654.fina" unicode="&#xfeea;&#x654;" horiz-adv-x="936" 
d="M234 131q-148 119 20 300q130 142 270 58q204 -163 272 -214.5t91 -66.5q33 -20 52 -28v-180q-78 0 -132 31q-27 16 -133.5 102.5t-263.5 182.5q-41 -53 297 -311q32 -26 53 -50q105 -133 -1 -256q-27 -31 -41 -42l-8 -7q-1 1 7 10q15 17 11.5 47t-20.5 60t-474 364z" />
    <glyph glyph-name="uni0647_uni0654.init" unicode="&#xfeeb;&#x654;" horiz-adv-x="1100" 
d="M1037 239q0 -119 -89 -214t-206 -95q-143 0 -370 133q-116 -59 -259 -60l-143 -3v180h193q-99 130 -99 248q0 128 82 210.5t211 82.5q116 0 216 -97l-118 122l135 122q447 -427 447 -629zM848 228q0 108 -238 348q55 -62 55 -171q0 -172 -111 -229q102 -61 176 -61
q118 0 118 113zM579 1318q-56 19 -102 19q-32 0 -57 -8t-42 -20.5t-26 -29.5t-9 -37q0 -12 9.5 -20.5t25.5 -14t36 -9t41 -3.5q27 0 69 12l31 -83q-42 -30 -81.5 -51.5t-80.5 -36t-86.5 -23.5t-100.5 -13l-6 101q42 3 76.5 8t63.5 12q-34 19 -55 49t-21 72q0 40 14.5 75.5
t41.5 62t67 42.5t90 16q57 0 127 -23z" />
    <glyph glyph-name="uni0647_uni0654.medi" unicode="&#xfeec;&#x654;" horiz-adv-x="1200" 
d="M858 228q0 108 -238 348q55 -62 55 -171q0 -172 -111 -229q102 -61 176 -61q118 0 118 113zM995 72q-16 -24 -37 -47q-89 -95 -206 -95q-143 0 -370 133q-116 -59 -259 -60l-143 -3v180h193q-99 130 -99 248q0 128 82 210.5t211 82.5q116 0 216 -97l-118 122l135 122
q343 -328 415 -523q64 -122 129 -153q35 -11 69 -12v-180q-126 0 -218 72zM579 1280q-56 19 -102 19q-32 0 -57 -8t-42 -20.5t-26 -29.5t-9 -37q0 -12 9.5 -20.5t25.5 -14t36 -9t41 -3.5q27 0 69 12l31 -83q-42 -30 -81.5 -51.5t-80.5 -36t-86.5 -23.5t-100.5 -13l-6 101
q42 3 76.5 8t63.5 12q-34 19 -55 49t-21 72q0 40 14.5 75.5t41.5 62t67 42.5t90 16q57 0 127 -23z" />
    <glyph glyph-name="uniFEFB_uni064B" unicode="&#xfedf;&#xfe8e;&#x64b;" horiz-adv-x="900" 
d="M289 354q0 -111 30.5 -142.5t90.5 -31.5h138q79 0 106 43q15 24 15 131v759q-1 17 10 28q12 12 28 12h100q19 0 31 -17q7 -11 7 -22v-839q0 -130 -77.5 -202.5t-208.5 -72.5h-149q-301 0 -301 275l1 838q0 16 11 27q12 12 27 12h104q18 0 30 -17q7 -10 7 -21v-760z
M344 1382l-316 -172l-27 50l315 174zM343 1265l-315 -168l-28 47l315 173z" />
    <glyph glyph-name="uniFEFC_uni064B" unicode="&#xfee0;&#xfe8e;&#x64b;" horiz-adv-x="1000" 
d="M276 354q0 -121 34 -154q20 -20 81 -20h154q78 0 105 43q16 26 16 131v762q3 30 31 40q6 2 12 2h96q17 0 28 -10q13 -12 13 -28v-784q0 -156 159 -156v-180q-137 0 -226 118q-90 -118 -223 -118h-165q-291 0 -291 275v843q2 17 13 28q12 12 28 12h101q19 0 31 -17
q5 -11 5 -22zM300 1435l-316 -172l-27 50l315 174zM299 1318l-315 -168l-28 47l315 173z" />
    <glyph glyph-name="uni0633_uni06CC.isol" unicode="&#xfeb3;&#xfbfd;" horiz-adv-x="2000" 
d="M689 206q32 -25 71 -26q51 0 82 23q51 37 51 133v225q0 17 11 28q12 12 28 12h97q19 0 31 -17q5 -9 7 -17h2v-269q0 -64 47 -105q44 -39 108 -39q123 0 123 112v294q0 17 11 28q12 12 28 12h100q19 0 31 -17q5 -8 6 -16h1v-267q0 -64 45.5 -105t109.5 -41q125 0 125 112
v301q2 13 11 22q12 12 28 12h101q19 0 31 -17q5 -9 7 -17v-278q0 -109 -40 -190q-83 -117 -205 -117q-128 0 -249 122q-108 -122 -256 -122t-244 127q-53 -109 -294 -109h-5v206zM10 5q0 311 314 311h50q183 0 294 -88q40 -47 93 -48h8v-180h-74q-83 0 -141.5 39.5
t-59.5 41.5q-53 40 -138 45h-40q-109 -1 -109 -120v-101q0 -119 115 -120h1322q17 0 28 -10q12 -12 12 -28v-104q0 -19 -17 -31q-11 -7 -22 -7h-1311q-324 0 -324 299v101z" />
    <glyph glyph-name="uni0633_uni06CC.fina" unicode="&#xfeb4;&#xfbfd;" horiz-adv-x="2121" 
d="M1981 256q15 -76 141 -76v-180l-64 11q-73 13 -116 88q-83 -117 -205 -117q-128 0 -249 122q-108 -122 -256 -122t-244 127q-53 -109 -294 -109h-5v206q32 -25 71 -26q51 0 82 23q51 37 51 133l-1 225q0 17 11 28q12 12 28 12h98q19 0 31 -17q5 -9 7 -17h2v-269
q0 -64 47 -105q44 -39 108 -39q123 0 123 112v294q0 17 11 28q12 12 28 12h100q19 0 31 -17q5 -8 6 -16h1v-267q0 -64 45.5 -105t109.5 -41q125 0 125 112v301q2 13 11 22q12 12 28 12h101q19 0 31 -17q5 -9 7 -17v-278q0 -17 -1 -33zM10 5q0 311 314 311h50q183 0 294 -88
q40 -47 93 -48h8v-180h-74q-83 0 -141.5 39.5t-59.5 41.5q-53 40 -138 45h-40q-109 -1 -109 -120v-101q0 -119 115 -120h1622q17 0 28 -10q12 -12 12 -28v-104q0 -19 -17 -31q-11 -7 -22 -7h-1611q-324 0 -324 299v101z" />
    <glyph glyph-name="uni0635_uni06CC.isol" unicode="&#xfebb;&#xfbfd;" horiz-adv-x="2100" 
d="M772 180h37q126 0 126 131v109q0 17 11 28q12 12 28 12h100q19 0 31 -17q5 -9 7 -17h1v-92q0 -154 115 -154v231q0 65 33 112q9 19 40 48q26 21 40 30q81 47 173 47h299q89 0 168 -45q16 -8 46 -33q72 -68 72 -152v-184q0 -89 -77 -158h-1q-22 -30 -52 -46
q-55 -30 -186 -30h-556q-120 0 -199 106q-105 -106 -243 -106zM50 5q0 311 314 311h30q183 0 294 -88q40 -47 93 -48h8v-180h-74q-83 0 -141.5 39.5t-59.5 41.5q-53 40 -138 45h-20q-109 -1 -109 -120v-101q0 -119 115 -120h1392q17 0 28 -10q12 -12 12 -28v-104
q0 -19 -17 -31q-11 -7 -22 -7h-1381q-324 0 -324 299v101z" />
    <glyph glyph-name="uni0635_uni06CC.fina" unicode="&#xfebc;&#xfbfd;" horiz-adv-x="2100" 
d="M40 5q0 311 314 311h40q183 0 274 -88q40 -47 93 -48h8v-180h-74q-83 0 -131.5 39.5t-49.5 41.5q-53 40 -138 45h-30q-109 -1 -109 -120v-101q0 -119 115 -120h1682q17 0 28 -10q12 -12 12 -28v-104q0 -19 -17 -31q-11 -7 -22 -7h-1671q-324 0 -324 299v101zM1206 0
q-130 0 -209 106q-105 -106 -243 -106l-13 180h37q126 0 126 131v109q0 17 11 28q12 12 28 12h100q19 0 31 -17q5 -9 7 -17h1v-92q0 -154 125 -154v231q0 65 33 112q9 19 40 48q26 21 40 30q81 47 173 47h289q89 0 168 -45q16 -8 46 -33q72 -68 72 -152v-184q0 -28 -8 -54
h48v-180h-902z" />
    <glyph glyph-name="uni0634_uni06CC.isol" unicode="&#xfeb7;&#xfbfd;" horiz-adv-x="2004" 
d="M701 206q32 -25 71 -26q51 0 82 23q51 37 51 133v225q0 17 11 28q12 12 28 12h97q19 0 31 -17q5 -9 7 -17h2v-269q0 -64 47 -105q44 -39 108 -39q123 0 123 112v294q0 17 11 28q12 12 28 12h100q19 0 31 -17q5 -8 6 -16h1v-267q0 -64 45.5 -105t109.5 -41q125 0 125 112
v301q2 13 11 22q12 12 28 12h101q19 0 31 -17q5 -9 7 -17v-278q0 -109 -40 -190q-83 -117 -205 -117q-128 0 -249 122q-108 -122 -256 -122t-244 127q-53 -109 -294 -109h-5v206zM22 5q0 311 314 311h50q183 0 294 -88q40 -47 93 -48h8v-180h-74q-83 0 -141.5 39.5
t-59.5 41.5q-53 40 -138 45h-40q-109 -1 -109 -120v-101q0 -119 115 -120h1322q17 0 28 -10q12 -12 12 -28v-104q0 -19 -17 -31q-11 -7 -22 -7h-1311q-324 0 -324 299v101zM1347 1102v102q0 18 12 29q12 13 29 13h106q20 0 33 -18q7 -11 7 -23v-106q0 -20 -19 -34
q-9 -6 -26 -6h-98q-31 0 -42 29q-2 8 -2 14zM1197 843v101q0 17 12 29q12 13 29 13h406q20 0 33 -18q7 -12 7 -23v-105q0 -20 -19 -34q-9 -6 -26 -6h-398q-31 0 -42 29q-2 7 -2 14z" />
    <glyph glyph-name="uni0634_uni06CC.fina" unicode="&#xfeb8;&#xfbfd;" horiz-adv-x="2154" 
d="M2013 256q15 -76 141 -76v-180l-64 11q-73 13 -116 88q-83 -117 -205 -117q-128 0 -249 122q-108 -122 -256 -122t-244 127q-53 -109 -294 -109h-5v206q32 -25 71 -26q51 0 82 23q51 37 51 133l-1 225q0 17 11 28q12 12 28 12h98q19 0 31 -17q5 -9 7 -17h2v-269
q0 -64 47 -105q44 -39 108 -39q123 0 123 112v294q0 17 11 28q12 12 28 12h100q19 0 31 -17q5 -8 6 -16h1v-267q0 -64 45.5 -105t109.5 -41q125 0 125 112v301q2 13 11 22q12 12 28 12h101q19 0 31 -17q5 -9 7 -17v-278q0 -17 -1 -33zM42 5q0 311 314 311h50q183 0 294 -88
q40 -47 93 -48h8v-180h-74q-83 0 -141.5 39.5t-59.5 41.5q-53 40 -138 45h-40q-109 -1 -109 -120v-101q0 -119 115 -120h1622q17 0 28 -10q12 -12 12 -28v-104q0 -19 -17 -31q-11 -7 -22 -7h-1611q-324 0 -324 299v101zM1374 1102v102q0 18 12 29q12 13 29 13h106
q20 0 33 -18q7 -11 7 -23v-106q0 -20 -19 -34q-9 -6 -26 -6h-98q-31 0 -42 29q-2 8 -2 14zM1224 843v101q0 17 12 29q12 13 29 13h406q20 0 33 -18q7 -12 7 -23v-105q0 -20 -19 -34q-9 -6 -26 -6h-398q-31 0 -42 29q-2 7 -2 14z" />
    <glyph glyph-name="uni0636_uni06CC.isol" unicode="&#xfebf;&#xfbfd;" horiz-adv-x="2200" 
d="M824 180h37q126 0 126 131v109q0 17 11 28q12 12 28 12h100q19 0 31 -17q5 -9 7 -17h1v-92q0 -154 115 -154v231q0 65 33 112q9 19 40 48q26 21 40 30q81 47 173 47h299q89 0 168 -45q16 -8 46 -33q72 -68 72 -152v-184q0 -89 -77 -158h-1q-22 -30 -52 -46
q-55 -30 -186 -30h-556q-120 0 -199 106q-105 -106 -243 -106zM102 5q0 311 314 311h30q183 0 294 -88q40 -47 93 -48h8v-180h-74q-83 0 -141.5 39.5t-59.5 41.5q-53 40 -138 45h-20q-109 -1 -109 -120v-101q0 -119 115 -120h1392q17 0 28 -10q12 -12 12 -28v-104
q0 -19 -17 -31q-11 -7 -22 -7h-1381q-324 0 -324 299v101zM1593 843v102q0 18 12 29q12 13 29 13h106q20 0 33 -18q7 -11 7 -23v-106q0 -20 -19 -34q-9 -6 -26 -6h-98q-31 0 -42 29q-2 8 -2 14z" />
    <glyph glyph-name="uni0636_uni06CC.fina" unicode="&#xfec0;&#xfbfd;" horiz-adv-x="2130" 
d="M72 5q0 311 314 311h40q183 0 274 -88q40 -47 93 -48h8v-180h-74q-83 0 -131.5 39.5t-49.5 41.5q-53 40 -138 45h-30q-109 -1 -109 -120v-101q0 -119 115 -120h1682q17 0 28 -10q12 -12 12 -28v-104q0 -19 -17 -31q-11 -7 -22 -7h-1671q-324 0 -324 299v101zM1238 0
q-130 0 -209 106q-105 -106 -243 -106l-13 180h37q126 0 126 131v109q0 17 11 28q12 12 28 12h100q19 0 31 -17q5 -9 7 -17h1v-92q0 -154 125 -154v231q0 65 33 112q9 19 40 48q26 21 40 30q81 47 173 47h289q89 0 168 -45q16 -8 46 -33q72 -68 72 -152v-184q0 -28 -8 -54
h48v-180h-902zM1543 843v102q0 18 12 29q12 13 29 13h106q20 0 33 -18q7 -11 7 -23v-106q0 -20 -19 -34q-9 -6 -26 -6h-98q-31 0 -42 29q-2 8 -2 14z" />
    <glyph glyph-name="uni0645_uni06CC.isol" unicode="&#xfee3;&#xfbfd;" horiz-adv-x="1600" 
d="M1593 243q0 -101 -34.5 -144t-90.5 -71t-186 -28q-133 0 -245 64q-60 -55 -183 -64l-1 180q57 0 84 30q7 7 10 42l-1 51v183q0 85 57 152q25 26 37 34q63 46 135 46h189q74 0 139 -49q11 -8 32 -29q24 -30 32 -48q26 -47 26 -113v-236zM100 5q0 311 314 311h50
q183 0 294 -88q40 -47 93 -48h8v-180h-74q-83 0 -141.5 39.5t-59.5 41.5q-53 40 -138 45h-40q-109 -1 -109 -120v-101q0 -119 115 -120h842q17 0 28 -10q12 -12 12 -28v-104q0 -19 -17 -31q-11 -7 -22 -7h-831q-324 0 -324 299v101z" />
    <glyph glyph-name="uni0645_uni06CC.fina" unicode="&#xfee4;&#xfbfd;" horiz-adv-x="1700" 
d="M1586 243q12 -38 42 -50q20 -9 77 -13v-180q-59 0 -99 16q-49 21 -69 30.5t-66 -18.5t-196 -28q-133 0 -245 64q-60 -55 -183 -64l-1 180q57 0 84 30q7 7 10 42l-1 51v183q0 85 57 152q25 26 37 34q63 46 135 46h189q74 0 139 -49q11 -8 32 -29q24 -30 32 -48
q26 -47 26 -113v-236zM94 5q0 311 314 311h50q183 0 294 -88q40 -47 93 -48h8v-180h-74q-83 0 -141.5 39.5t-59.5 41.5q-53 40 -138 45h-40q-109 -1 -109 -120v-101q0 -119 115 -120h1142q17 0 28 -10q12 -12 12 -28v-104q0 -19 -17 -31q-11 -7 -22 -7h-1131
q-324 0 -324 299v101z" />
    <glyph glyph-name="uni0649_uni06CC.tight.fina" unicode="&#xfbe9;&#xfbfd;" horiz-adv-x="1100" 
d="M35 5q0 311 314 311h180q183 0 264 -88q40 -47 93 -48h218v-180h-284q-83 0 -126.5 39.5t-44.5 41.5q-53 40 -138 45h-170q-109 -1 -109 -120v-101q0 -119 115 -120h922q17 0 28 -10q12 -12 12 -28v-104q0 -19 -17 -31q-11 -7 -22 -7h-911q-324 0 -324 299v101z" />
    <glyph glyph-name="uni0646_uni06CC.fina" unicode="&#xfee8;&#xfbfd;" horiz-adv-x="1452" 
d="M785 0l66 180h202q75 0 103.5 30.5t28.5 107.5v242q0 17 11 28q12 12 28 12h106q19 0 31 -17q7 -11 7 -22v-243q0 -138 88 -138v-180q-104 0 -176 70q-92 -70 -174 -70h-321zM390 -395q-324 0 -324 349q0 362 314 362h80q183 0 294 -88q40 -47 93 -48h8v-180h-74
q-83 0 -141.5 39.5t-59.5 41.5q-53 40 -138 45h-70q-109 -1 -109 -171q0 -169 115 -170h940q17 0 28 -10q12 -12 12 -28v-104q0 -19 -17 -31q-11 -7 -22 -7h-929zM956 843v102q0 18 12 29q12 13 29 13h106q20 0 33 -18q7 -11 7 -23v-106q0 -20 -19 -34q-9 -6 -26 -6h-98
q-31 0 -42 29q-2 8 -2 14z" />
    <glyph glyph-name="uni062A_uni06CC.fina" unicode="&#xfe98;&#xfbfd;" horiz-adv-x="1447" 
d="M780 0l66 180h202q75 0 103.5 30.5t28.5 107.5v242q0 17 11 28q12 12 28 12h106q19 0 31 -17q7 -11 7 -22v-243q0 -138 88 -138v-180q-104 0 -176 70q-92 -70 -174 -70h-321zM385 -395q-324 0 -324 349q0 362 314 362h80q183 0 294 -88q40 -47 93 -48h8v-180h-74
q-83 0 -141.5 39.5t-59.5 41.5q-53 40 -138 45h-70q-109 -1 -109 -171q0 -169 115 -170h940q17 0 28 -10q12 -12 12 -28v-104q0 -19 -17 -31q-11 -7 -22 -7h-929zM751 843v101q0 17 12 29q12 13 29 13h406q20 0 33 -18q7 -12 7 -23v-105q0 -20 -19 -34q-9 -6 -26 -6h-398
q-31 0 -42 29q-2 7 -2 14z" />
    <glyph glyph-name="uni062B_uni06CC.fina" unicode="&#xfe9c;&#xfbfd;" horiz-adv-x="1442" 
d="M775 0l66 180h202q75 0 103.5 30.5t28.5 107.5v242q0 17 11 28q12 12 28 12h106q19 0 31 -17q7 -11 7 -22v-243q0 -138 88 -138v-180q-104 0 -176 70q-92 -70 -174 -70h-321zM380 -395q-324 0 -324 349q0 362 314 362h80q183 0 294 -88q40 -47 93 -48h8v-180h-74
q-83 0 -141.5 39.5t-59.5 41.5q-53 40 -138 45h-70q-109 -1 -109 -171q0 -169 115 -170h940q17 0 28 -10q12 -12 12 -28v-104q0 -19 -17 -31q-11 -7 -22 -7h-929zM876 1102v102q0 18 12 29q12 13 29 13h106q20 0 33 -18q7 -11 7 -23v-106q0 -20 -19 -34q-9 -6 -26 -6h-98
q-31 0 -42 29q-2 8 -2 14zM726 843v101q0 17 12 29q12 13 29 13h406q20 0 33 -18q7 -12 7 -23v-105q0 -20 -19 -34q-9 -6 -26 -6h-398q-31 0 -42 29q-2 7 -2 14z" />
    <glyph glyph-name="uni0644_uni06CC.isol" unicode="&#xfedf;&#xfbfd;" horiz-adv-x="1256" 
d="M1215 1109h1v-791q0 -139 -88 -248q-65 -54 -117 -64q-34 -6 -167 -6v180h59q86 -2 114 45q19 32 19 129v755h1v6q0 17 11 28q12 12 28 12h101q19 0 31 -17q7 -11 7 -22v-7zM86 5q0 311 314 311h50q183 0 294 -88q40 -47 93 -48h8v-180h-74q-83 0 -141.5 39.5t-59.5 41.5
q-53 40 -138 45h-40q-109 -1 -109 -120v-101q0 -119 115 -120h492q17 0 28 -10q12 -12 12 -28v-104q0 -19 -17 -31q-11 -7 -22 -7h-481q-324 0 -324 299v101z" />
    <glyph glyph-name="uni0644_uni06CC.fina" unicode="&#xfee0;&#xfbfd;" horiz-adv-x="1300" 
d="M1175 1109h1v-791q0 -98 58 -122q28 -11 99 -16v-180h-54q-105 0 -191 70q-65 -54 -117 -64q-34 -6 -167 -6v180h59q86 -2 114 45q19 32 19 129v755h1v6q0 17 11 28q12 12 28 12h101q19 0 31 -17q7 -11 7 -22v-7zM46 5q0 311 314 311h50q183 0 294 -88q40 -47 93 -48h8
v-180h-74q-83 0 -141.5 39.5t-59.5 41.5q-53 40 -138 45h-40q-109 -1 -109 -120v-101q0 -119 115 -120h802q17 0 28 -10q12 -12 12 -28v-104q0 -19 -17 -31q-11 -7 -22 -7h-791q-324 0 -324 299v101z" />
    <glyph glyph-name="uni0628_uni06CC.fina" unicode="&#xfe92;&#xfbfd;" horiz-adv-x="1396" 
d="M729 0l66 180h202q75 0 103.5 30.5t28.5 107.5v242q0 17 11 28q12 12 28 12h106q19 0 31 -17q7 -11 7 -22v-243q0 -138 88 -138v-180q-104 0 -176 70q-92 -70 -174 -70h-321zM334 -395q-324 0 -324 349q0 362 314 362h70q183 0 304 -88q40 -47 93 -48h8v-180h-74
q-83 0 -146.5 39.5t-64.5 41.5q-53 40 -138 45h-60q-109 -1 -109 -171q0 -169 115 -170h642q17 0 28 -10q12 -12 12 -28v-104q0 -19 -17 -31q-11 -7 -22 -7h-631zM1133 -352v102q0 18 12 29q12 13 29 13h106q20 0 33 -18q7 -11 7 -23v-106q0 -20 -19 -34q-9 -6 -26 -6h-98
q-31 0 -42 29q-2 8 -2 14z" />
    <glyph glyph-name="uni0649_uni06CC.fina" unicode="&#xfbe9;&#xfbfd;" horiz-adv-x="1400" 
d="M729 0l66 180h202q75 0 103.5 30.5t28.5 107.5v242q0 17 11 28q12 12 28 12h106q19 0 31 -17q7 -11 7 -22v-243q0 -138 88 -138v-180q-104 0 -176 70q-92 -70 -174 -70h-321zM334 -395q-324 0 -324 349q0 362 314 362h80q183 0 294 -88q40 -47 93 -48h8v-180h-74
q-83 0 -141.5 39.5t-59.5 41.5q-53 40 -138 45h-70q-109 -1 -109 -171q0 -169 115 -170h940q17 0 28 -10q12 -12 12 -28v-104q0 -19 -17 -31q-11 -7 -22 -7h-929z" />
    <glyph glyph-name="uni06CC_uni06CC.fina" unicode="&#xfbff;&#xfbfd;" horiz-adv-x="1452" 
d="M898 -246q11 29 42 29h398q17 0 26 -6q19 -14 19 -34v-97q0 -12 -7 -23q-13 -18 -33 -18h-406q-17 0 -29 13q-12 11 -12 29v93q0 6 2 14zM1053 180q75 0 103.5 30.5t28.5 107.5v242q0 17 11 28q12 12 28 12h106q19 0 31 -17q7 -11 7 -22v-243q0 -138 88 -138v-180
q-104 0 -176 70q-92 -70 -174 -70h-325q-83 0 -141.5 39.5t-59.5 41.5q-53 40 -138 45h-70q-109 -1 -109 -171q0 -169 115 -170h342q17 0 28 -10q12 -12 12 -28v-104q0 -19 -17 -31q-11 -7 -22 -7h-331q-324 0 -324 349q0 362 314 362h80q183 0 294 -88q40 -47 93 -48h206z
" />
    <glyph glyph-name="uni067E_uni06CC.fina" unicode="&#xfb59;&#xfbfd;" horiz-adv-x="1452" 
d="M1048 -517q11 30 42 30h98q17 0 26 -7q19 -13 19 -33v-106q0 -12 -7 -23q-13 -18 -33 -18h-106q-17 0 -29 12t-12 30v102q0 6 2 13zM898 -246q11 29 42 29h398q17 0 26 -6q19 -14 19 -34v-97q0 -12 -7 -23q-13 -18 -33 -18h-406q-17 0 -29 13q-12 11 -12 29v93q0 6 2 14z
M1053 180q75 0 103.5 30.5t28.5 107.5v242q0 17 11 28q12 12 28 12h106q19 0 31 -17q7 -11 7 -22v-243q0 -138 88 -138v-180q-104 0 -176 70q-92 -70 -174 -70h-325q-83 0 -141.5 39.5t-59.5 41.5q-53 40 -138 45h-70q-109 -1 -109 -171q0 -169 115 -170h342q17 0 28 -10
q12 -12 12 -28v-104q0 -19 -17 -31q-11 -7 -22 -7h-331q-324 0 -324 349q0 362 314 362h80q183 0 294 -88q40 -47 93 -48h206z" />
    <glyph glyph-name="uni0649_uni06CC.isol" unicode="&#xfbe8;&#xfbfd;" horiz-adv-x="1400" 
d="M729 0l66 180h202q75 0 103.5 30.5t28.5 107.5v242q0 17 11 28q12 12 28 12h106q19 0 31 -17q7 -11 7 -22v-243q0 -168 -88 -248q-92 -70 -174 -70h-321zM334 -395q-324 0 -324 349q0 362 314 362h70q183 0 304 -88q40 -47 93 -48h8v-180h-74q-83 0 -146.5 39.5
t-64.5 41.5q-53 40 -138 45h-60q-109 -1 -109 -171q0 -169 115 -170h652q17 0 28 -10q12 -12 12 -28v-104q0 -19 -17 -31q-11 -7 -22 -7h-641z" />
    <glyph glyph-name="uni0646_uni06CC.isol" unicode="&#xfee7;&#xfbfd;" horiz-adv-x="1400" 
d="M789 0l66 180h202q75 0 103.5 30.5t28.5 107.5v242q0 17 11 28q12 12 28 12h106q19 0 31 -17q7 -11 7 -22v-243q0 -168 -88 -248q-92 -70 -174 -70h-321zM394 -395q-324 0 -324 349q0 362 314 362h70q183 0 304 -88q40 -47 93 -48h8v-180h-74q-83 0 -146.5 39.5
t-64.5 41.5q-53 40 -138 45h-60q-109 -1 -109 -171q0 -169 115 -170h652q17 0 28 -10q12 -12 12 -28v-104q0 -19 -17 -31q-11 -7 -22 -7h-641zM970 843v102q0 18 12 29q12 13 29 13h106q20 0 33 -18q7 -11 7 -23v-106q0 -20 -19 -34q-9 -6 -26 -6h-98q-31 0 -42 29
q-2 8 -2 14z" />
    <glyph glyph-name="uni062A_uni06CC.isol" unicode="&#xfe97;&#xfbfd;" horiz-adv-x="1400" 
d="M784 0l66 180h202q75 0 103.5 30.5t28.5 107.5v242q0 17 11 28q12 12 28 12h106q19 0 31 -17q7 -11 7 -22v-243q0 -168 -88 -248q-92 -70 -174 -70h-321zM389 -395q-324 0 -324 349q0 362 314 362h70q183 0 304 -88q40 -47 93 -48h8v-180h-74q-83 0 -146.5 39.5
t-64.5 41.5q-53 40 -138 45h-60q-109 -1 -109 -171q0 -169 115 -170h652q17 0 28 -10q12 -12 12 -28v-104q0 -19 -17 -31q-11 -7 -22 -7h-641zM680 843v101q0 17 12 29q12 13 29 13h406q20 0 33 -18q7 -12 7 -23v-105q0 -20 -19 -34q-9 -6 -26 -6h-398q-31 0 -42 29
q-2 7 -2 14z" />
    <glyph glyph-name="uni062B_uni06CC.isol" unicode="&#xfe9b;&#xfbfd;" horiz-adv-x="1400" 
d="M789 0l66 180h202q75 0 103.5 30.5t28.5 107.5v242q0 17 11 28q12 12 28 12h106q19 0 31 -17q7 -11 7 -22v-243q0 -168 -88 -248q-92 -70 -174 -70h-321zM394 -395q-324 0 -324 349q0 362 314 362h70q183 0 304 -88q40 -47 93 -48h8v-180h-74q-83 0 -146.5 39.5
t-64.5 41.5q-53 40 -138 45h-60q-109 -1 -109 -171q0 -169 115 -170h652q17 0 28 -10q12 -12 12 -28v-104q0 -19 -17 -31q-11 -7 -22 -7h-641zM836 1102v102q0 18 12 29q12 13 29 13h106q20 0 33 -18q7 -11 7 -23v-106q0 -20 -19 -34q-9 -6 -26 -6h-98q-31 0 -42 29
q-2 8 -2 14zM686 843v101q0 17 12 29q12 13 29 13h406q20 0 33 -18q7 -12 7 -23v-105q0 -20 -19 -34q-9 -6 -26 -6h-398q-31 0 -42 29q-2 7 -2 14z" />
    <glyph glyph-name="uni0628_uni06CC.isol" unicode="&#xfe91;&#xfbfd;" horiz-adv-x="1400" 
d="M784 0l66 180h202q75 0 103.5 30.5t28.5 107.5v242q0 17 11 28q12 12 28 12h106q19 0 31 -17q7 -11 7 -22v-243q0 -168 -88 -248q-92 -70 -174 -70h-321zM389 -395q-324 0 -324 349q0 362 314 362h80q183 0 294 -88q40 -47 93 -48h8v-180h-74q-83 0 -141.5 39.5
t-59.5 41.5q-53 40 -138 45h-70q-109 -1 -109 -171q0 -169 115 -170h642q17 0 28 -10q12 -12 12 -28v-104q0 -19 -17 -31q-11 -7 -22 -7h-631zM1180 -352v102q0 18 12 29q12 13 29 13h106q20 0 33 -18q7 -11 7 -23v-106q0 -20 -19 -34q-9 -6 -26 -6h-98q-31 0 -42 29
q-2 8 -2 14z" />
    <glyph glyph-name="uni06CC_uni06CC.isol" unicode="&#xfbfe;&#xfbfd;" horiz-adv-x="1400" 
d="M794 0l66 180h202q75 0 103.5 30.5t28.5 107.5v242q0 17 11 28q12 12 28 12h106q19 0 31 -17q7 -11 7 -22v-243q0 -168 -88 -248q-92 -70 -174 -70h-321zM399 -395q-324 0 -324 349q0 362 314 362h70q183 0 304 -88q40 -47 93 -48h8v-180h-74q-83 0 -146.5 39.5
t-64.5 41.5q-53 40 -138 45h-60q-109 -1 -109 -171q0 -169 115 -170h332q17 0 28 -10q12 -12 12 -28v-104q0 -19 -17 -31q-11 -7 -22 -7h-321zM887 -253q11 29 42 29h398q17 0 26 -6q19 -14 19 -34v-86q0 -12 -7 -23q-13 -18 -33 -18h-406q-17 0 -29 13q-12 11 -12 29v82
q0 6 2 14z" />
    <glyph glyph-name="uni067E_uni06CC.isol" unicode="&#xfb58;&#xfbfd;" horiz-adv-x="1400" 
d="M794 0l66 180h202q75 0 103.5 30.5t28.5 107.5v242q0 17 11 28q12 12 28 12h106q19 0 31 -17q7 -11 7 -22v-243q0 -168 -88 -248q-92 -70 -174 -70h-321zM399 -395q-324 0 -324 349q0 362 314 362h70q183 0 304 -88q40 -47 93 -48h8v-180h-74q-83 0 -146.5 39.5
t-64.5 41.5q-53 40 -138 45h-60q-109 -1 -109 -171q0 -169 115 -170h332q17 0 28 -10q12 -12 12 -28v-104q0 -19 -17 -31q-11 -7 -22 -7h-321zM1037 -513q11 30 42 30h98q17 0 26 -7q19 -13 19 -33v-106q0 -12 -7 -23q-13 -18 -33 -18h-106q-17 0 -29 12t-12 30v102
q0 6 2 13zM887 -253q11 29 42 29h398q17 0 26 -6q19 -14 19 -34v-86q0 -12 -7 -23q-13 -18 -33 -18h-406q-17 0 -29 13q-12 11 -12 29v82q0 6 2 14z" />
    <glyph glyph-name="uni0644_uni0671.isol" unicode="&#xfedf;&#xfb51;" horiz-adv-x="900" 
d="M279 354q0 -111 30.5 -142.5t90.5 -31.5h138q79 0 106 43q15 24 15 131v759q-1 17 10 28q12 12 28 12h100q19 0 31 -17q7 -11 7 -22v-839q0 -130 -77.5 -202.5t-208.5 -72.5h-149q-301 0 -301 275l1 838q0 16 11 27q12 12 27 12h104q18 0 30 -17q7 -10 7 -21v-760z
M-16 1409q14 17 25.5 28.5t23 18t23.5 9.5t27 3q24 0 40.5 -11.5t32.5 -26.5q27 57 54 97t51.5 67t47.5 42.5t42.5 23.5t36 10t29.5 2q21 0 46.5 -6t47 -21t36 -40t14.5 -63q0 -36 -18 -67.5t-47 -57.5t-65.5 -46.5t-75 -34.5t-74 -21t-61.5 -7q-24 0 -41.5 4.5t-31 11.5
t-24 16.5t-19.5 18.5q-4 3 -9.5 6.5t-11.5 3.5q-13 0 -21 -4.5t-19 -17.5zM234 1406q22 2 49 7t55 13.5t54 20t46.5 26t33 32t12.5 37.5q0 9 -7 15.5t-16.5 9.5t-22 4.5t-21.5 1.5q-13 0 -31.5 -4t-42 -20t-51 -50t-58.5 -93z" />
    <glyph glyph-name="uni0644_uni0671.fina" unicode="&#xfee0;&#xfb51;" horiz-adv-x="1000" 
d="M277 354q0 -121 34 -154q20 -20 81 -20h154q78 0 105 43q16 26 16 131v762q3 30 31 40q6 2 12 2h96q17 0 28 -10q13 -12 13 -28v-784q0 -156 159 -156v-180q-137 0 -226 118q-90 -118 -223 -118h-165q-291 0 -291 275v843q2 17 13 28q12 12 28 12h101q19 0 31 -17
q5 -11 5 -22zM-16 1409q14 17 25.5 28.5t23 18t23.5 9.5t27 3q24 0 40.5 -11.5t32.5 -26.5q27 57 54 97t51.5 67t47.5 42.5t42.5 23.5t36 10t29.5 2q21 0 46.5 -6t47 -21t36 -40t14.5 -63q0 -36 -18 -67.5t-47 -57.5t-65.5 -46.5t-75 -34.5t-74 -21t-61.5 -7
q-24 0 -41.5 4.5t-31 11.5t-24 16.5t-19.5 18.5q-4 3 -9.5 6.5t-11.5 3.5q-13 0 -21 -4.5t-19 -17.5zM234 1406q22 2 49 7t55 13.5t54 20t46.5 26t33 32t12.5 37.5q0 9 -7 15.5t-16.5 9.5t-22 4.5t-21.5 1.5q-13 0 -31.5 -4t-42 -20t-51 -50t-58.5 -93z" />
    <glyph glyph-name="uni06A9_uni06CC.isol" unicode="&#xfb90;&#xfbfd;" horiz-adv-x="1500" 
d="M827 181q7 -1 15 -1h326q103 0 103 68q0 37 -33 72l-478 497q-22 1 -40 15q-4 3 -10 9q-8 10 -11 15q-8 16 -8 36v80q0 21 13 35q6 6 9 7q6 4 12 6l665 239l25 -180l-474 -180l463 -511q50 -56 50 -149q0 -115 -89 -180q-79 -59 -197 -59h-341v181zM77 5q0 311 314 311
h40q183 0 304 -88q40 -47 93 -48h8v-180h-74q-83 0 -146.5 39.5t-64.5 41.5q-53 40 -138 45h-30q-109 -1 -109 -120v-101q0 -119 115 -120h732q17 0 28 -10q12 -12 12 -28v-104q0 -19 -17 -31q-11 -7 -22 -7h-721q-324 0 -324 299v101z" />
    <glyph glyph-name="uni06A9_uni06CC.fina" unicode="&#xfb91;&#xfbfd;" horiz-adv-x="1600" 
d="M818 180h284q92 0 92 68q0 34 -42 78l-470 491q-20 2 -37 15q-4 3 -10 9q-8 10 -11 15q-8 16 -8 36v80q0 21 13 35q6 6 9 7q6 4 13 6l661 239l29 -180l-480 -180l502 -550q53 -59 158 -150q44 -22 91 -19v-180q-192 0 -285 144q-61 -144 -228 -144h-281v180zM66 5
q0 311 314 311h50q183 0 294 -88q40 -47 93 -48h8v-180h-74q-83 0 -141.5 39.5t-59.5 41.5q-53 40 -138 45h-40q-109 -1 -109 -120v-101q0 -119 115 -120h1182q17 0 28 -10q12 -12 12 -28v-104q0 -19 -17 -31q-11 -7 -22 -7h-1171q-324 0 -324 299v101z" />
    <glyph glyph-name="uni06AF_uni06CC.isol" unicode="&#xfb94;&#xfbfd;" horiz-adv-x="1500" 
d="M827 181q7 -1 15 -1h326q103 0 103 68q0 37 -33 72l-478 497q-22 1 -40 15q-4 3 -10 9q-8 10 -11 15q-8 16 -8 36v80q0 21 13 35q6 6 9 7q6 4 12 6l665 239l25 -180l-474 -180l463 -511q50 -56 50 -149q0 -115 -89 -180q-79 -59 -197 -59h-341v181zM77 5q0 311 314 311
h50q183 0 294 -88q40 -47 93 -48h8v-180h-74q-83 0 -141.5 39.5t-59.5 41.5q-53 40 -138 45h-40q-109 -1 -109 -120v-101q0 -119 115 -120h732q17 0 28 -10q12 -12 12 -28v-104q0 -19 -17 -31q-11 -7 -22 -7h-721q-324 0 -324 299v101zM1327 1361l-629 -227l-8 69l633 227z
" />
    <glyph glyph-name="uni06AF_uni06CC.fina" unicode="&#xfb95;&#xfbfd;" horiz-adv-x="1600" 
d="M818 180h284q92 0 92 68q0 34 -42 78l-470 491q-20 2 -37 15q-4 3 -10 9q-8 10 -11 15q-8 16 -8 36v80q0 21 13 35q6 6 9 7q6 4 13 6l661 239l29 -180l-480 -180l502 -550q53 -59 158 -150q44 -22 91 -19v-180q-192 0 -285 144q-61 -144 -228 -144h-281v180zM66 5
q0 311 314 311h50q183 0 294 -88q40 -47 93 -48h8v-180h-74q-83 0 -141.5 39.5t-59.5 41.5q-53 40 -138 45h-40q-109 -1 -109 -120v-101q0 -119 115 -120h1182q17 0 28 -10q12 -12 12 -28v-104q0 -19 -17 -31q-11 -7 -22 -7h-1171q-324 0 -324 299v101zM1247 1361l-629 -227
l-8 69l633 227z" />
    <glyph glyph-name="uni0626_uni06CC.isol" unicode="&#xfe8b;&#xfbfd;" horiz-adv-x="1400" 
d="M781 0l66 180h202q75 0 103.5 30.5t28.5 107.5v242q0 17 11 28q12 12 28 12h106q19 0 31 -17q7 -11 7 -22v-243q0 -168 -88 -248q-92 -70 -174 -70h-321zM386 -395q-324 0 -324 349q0 362 314 362h70q183 0 304 -88q40 -47 93 -48h8v-180h-74q-83 0 -146.5 39.5
t-64.5 41.5q-53 40 -138 45h-60q-109 -1 -109 -171q0 -169 115 -170h652q17 0 28 -10q12 -12 12 -28v-104q0 -19 -17 -31q-11 -7 -22 -7h-641zM992 978q47 0 98 -30q-26 -51 -33 -66q-39 22 -63 22h-5q-34 0 -58 -31q-8 -15 -8 -30v-3q0 -33 29 -59q17 -12 36 -12h1
q40 0 138 52h1l37 -76l-290 -145q-29 55 -35 69l74 40v1q-63 41 -63 119q0 62 42 107q43 42 99 42z" />
    <glyph glyph-name="uni0626_uni06CC.fina" unicode="&#xfe8c;&#xfbfd;" horiz-adv-x="1444" 
d="M785 0l66 180h202q75 0 103.5 30.5t28.5 107.5v242q0 17 11 28q12 12 28 12h106q19 0 31 -17q7 -11 7 -22v-243q0 -138 88 -138v-180q-104 0 -176 70q-92 -70 -174 -70h-321zM390 -395q-324 0 -324 349q0 362 314 362h80q183 0 294 -88q40 -47 93 -48h8v-180h-74
q-83 0 -141.5 39.5t-59.5 41.5q-53 40 -138 45h-70q-109 -1 -109 -171q0 -169 115 -170h940q17 0 28 -10q12 -12 12 -28v-104q0 -19 -17 -31q-11 -7 -22 -7h-929zM971 978q47 0 98 -30q-26 -51 -33 -66q-39 22 -63 22h-5q-34 0 -58 -31q-8 -15 -8 -30v-3q0 -33 29 -59
q17 -12 36 -12h1q40 0 138 52h1l37 -76l-290 -145q-29 55 -35 69l74 40v1q-63 41 -63 119q0 62 42 107q43 42 99 42z" />
    <glyph glyph-name="uni0671.isol" unicode="&#x671;" horiz-adv-x="500" arabic-form="isolated" 
d="M-6 1319q14 17 25.5 28.5t23 18t23.5 9.5t27 3q24 0 40.5 -11.5t32.5 -26.5q27 57 54 97t51.5 67t47.5 42.5t42.5 23.5t36 10t29.5 2q21 0 46.5 -6t47 -21t36 -40t14.5 -63q0 -36 -18 -67.5t-47 -57.5t-65.5 -46.5t-75 -34.5t-74 -21t-61.5 -7q-24 0 -41.5 4.5t-31 11.5
t-24 16.5t-19.5 18.5q-4 3 -9.5 6.5t-11.5 3.5q-13 0 -21 -4.5t-19 -17.5zM244 1316q22 2 49 7t55 13.5t54 20t46.5 26t33 32t12.5 37.5q0 9 -7 15.5t-16.5 9.5t-22 4.5t-21.5 1.5q-13 0 -31.5 -4t-42 -20t-51 -50t-58.5 -93zM362 37q0 -19 -18 -32q-9 -6 -25 -6h-93
q-30 0 -40 28q-2 7 -2 13v1071q0 17 11 28q12 12 28 12h101q19 0 31 -17q7 -11 7 -22v-1075z" />
    <glyph glyph-name="uni0671.fina" unicode="&#x671;" horiz-adv-x="500" arabic-form="final" 
d="M337 1101h1v-747q0 -123 40 -151q32 -23 123 -23v-180q-142 0 -226 46q-117 64 -117 229v826h1v14q0 17 11 28q12 12 28 12h101q19 0 31 -17q7 -11 7 -22v-15zM-16 1309q14 17 25.5 28.5t23 18t23.5 9.5t27 3q24 0 40.5 -11.5t32.5 -26.5q27 57 54 97t51.5 67t47.5 42.5
t42.5 23.5t36 10t29.5 2q21 0 46.5 -6t47 -21t36 -40t14.5 -63q0 -36 -18 -67.5t-47 -57.5t-65.5 -46.5t-75 -34.5t-74 -21t-61.5 -7q-24 0 -41.5 4.5t-31 11.5t-24 16.5t-19.5 18.5q-4 3 -9.5 6.5t-11.5 3.5q-13 0 -21 -4.5t-19 -17.5zM234 1306q22 2 49 7t55 13.5t54 20
t46.5 26t33 32t12.5 37.5q0 9 -7 15.5t-16.5 9.5t-22 4.5t-21.5 1.5q-13 0 -31.5 -4t-42 -20t-51 -50t-58.5 -93z" />
    <glyph glyph-name="uni067E.isol" unicode="&#x67e;" horiz-adv-x="1500" arabic-form="isolated" 
d="M149 0q-16 0 -25 6q-18 13 -18 32v103q0 11 7 22q12 17 31 17h1006q75 0 103.5 31t28.5 107v243q0 11 7 22q12 17 31 17h102q16 0 28 -12q11 -11 11 -28v-25h1v-242q0 -119 -69 -203q-74 -90 -189 -90h-1055zM693 -516q11 30 42 30h98q17 0 26 -7q19 -13 19 -33v-106
q0 -12 -7 -23q-13 -18 -33 -18h-106q-17 0 -29 12t-12 30v102q0 6 2 13zM541 -351v101q0 17 12 29q12 13 29 13h406q20 0 33 -18q7 -12 7 -23v-105q0 -20 -19 -34q-9 -6 -26 -6h-398q-31 0 -42 29q-2 7 -2 14z" />
    <glyph glyph-name="uni067E.fina" unicode="&#x67e;" horiz-adv-x="1400" arabic-form="final" 
d="M999 180q75 0 103.5 30.5t28.5 107.5v242q0 17 11 28q12 12 28 12h106q19 0 31 -17q7 -11 7 -22v-243q0 -138 88 -138v-180q-104 0 -176 70q-92 -70 -174 -70h-944q-30 0 -40 28q-2 7 -2 13v99q0 17 11 28q12 12 28 12h894zM585 -517q11 30 42 30h98q17 0 26 -7
q19 -13 19 -33v-106q0 -12 -7 -23q-13 -18 -33 -18h-106q-17 0 -29 12t-12 30v102q0 6 2 13zM433 -352v101q0 17 12 29q12 13 29 13h406q20 0 33 -18q7 -12 7 -23v-105q0 -20 -19 -34q-9 -6 -26 -6h-398q-31 0 -42 29q-2 7 -2 14z" />
    <glyph glyph-name="uni067E.init" unicode="&#x67e;" horiz-adv-x="600" arabic-form="initial" 
d="M23 0q-16 0 -25 6q-18 13 -18 32v103q0 11 7 22q12 17 31 17h206q75 0 103.5 31t28.5 107v243q0 11 7 22q12 17 31 17h102q16 0 28 -12q11 -11 11 -28v-25h1v-242q0 -119 -69 -203q-74 -90 -189 -90h-255zM201 -519q11 30 42 30h98q17 0 26 -7q19 -13 19 -33v-106
q0 -12 -7 -23q-13 -18 -33 -18h-106q-17 0 -29 12t-12 30v102q0 6 2 13zM49 -354v101q0 17 12 29q12 13 29 13h406q20 0 33 -18q7 -12 7 -23v-105q0 -20 -19 -34q-9 -6 -26 -6h-398q-31 0 -42 29q-2 7 -2 14z" />
    <glyph glyph-name="uni067E.medi" unicode="&#x67e;" horiz-adv-x="600" arabic-form="medial" 
d="M203 180q75 0 103.5 30.5t28.5 107.5v242q0 17 11 28q12 12 28 12h106q19 0 31 -17q7 -11 7 -22v-243q0 -138 88 -138v-180q-104 0 -176 70q-92 -70 -174 -70h-244q-30 0 -40 28q-2 7 -2 13v99q0 17 11 28q12 12 28 12h194zM214 -516q11 30 42 30h98q17 0 26 -7
q19 -13 19 -33v-106q0 -12 -7 -23q-13 -18 -33 -18h-106q-17 0 -29 12t-12 30v102q0 6 2 13zM62 -351v101q0 17 12 29q12 13 29 13h406q20 0 33 -18q7 -12 7 -23v-105q0 -20 -19 -34q-9 -6 -26 -6h-398q-31 0 -42 29q-2 7 -2 14z" />
    <glyph glyph-name="uni06A4.isol" unicode="&#x6a4;" horiz-adv-x="1800" arabic-form="isolated" 
d="M1453 180q82 0 103 31q10 15 24 53h-253q-72 0 -137 47q-13 11 -29 27q-62 69 -62 158v184q0 85 57 152q25 26 37 34q63 46 135 46h190q74 0 139 -49q11 -8 32 -29q24 -30 32 -48q26 -47 26 -113v-156q2 -19 3 -38q3 -145 3 -214q0 -79 -73 -169q-79 -96 -205 -96h-1297
q-30 0 -40 28q-2 7 -2 13v98q0 17 11 29q12 12 28 12h1278zM1330 1356v102q0 18 12 29q12 13 29 13h106q20 0 33 -18q7 -11 7 -23v-106q0 -20 -19 -34q-9 -6 -26 -6h-98q-31 0 -42 29q-2 8 -2 14zM1180 1097v101q0 17 12 29q12 13 29 13h406q20 0 33 -18q7 -12 7 -23v-105
q0 -20 -19 -34q-9 -6 -26 -6h-398q-31 0 -42 29q-2 7 -2 14z" />
    <glyph glyph-name="uni06A4.fina" unicode="&#x6a4;" horiz-adv-x="1700" arabic-form="final" 
d="M1032 180q-36 56 -36 124v184q0 85 57 152q25 26 37 34q63 46 135 46h190q74 0 139 -49q11 -8 32 -29q24 -30 32 -48q26 -47 26 -113v-249q0 -28 -7 -52h63v-180q-274 0 -348 40q-25 -37 -342 -37q-20 -1 -80 -1q-7 -2 -16 -2h-756q-30 0 -40 28q-2 7 -2 13v98
q0 17 11 29q12 12 28 12h877zM1230 1156v102q0 18 12 29q12 13 29 13h106q20 0 33 -18q7 -11 7 -23v-106q0 -20 -19 -34q-9 -6 -26 -6h-98q-31 0 -42 29q-2 8 -2 14zM1080 897v101q0 17 12 29q12 13 29 13h406q20 0 33 -18q7 -12 7 -23v-105q0 -20 -19 -34q-9 -6 -26 -6
h-398q-31 0 -42 29q-2 7 -2 14z" />
    <glyph glyph-name="uni06A4.init" unicode="&#x6a4;" horiz-adv-x="700" arabic-form="initial" 
d="M38 366q-36 57 -36 125v184q0 85 57 152q25 26 37 34q63 46 135 46h190q74 0 139 -49q11 -8 32 -29q24 -30 32 -48q26 -47 26 -113l11 -434q6 -66 -85 -152q-89 -82 -206 -82h-440v180h442q99 0 99 74q-72 1 -154 5h-87q-35 0 -69 11q-4 1 -7 1q-78 29 -116 95zM233 1346
v102q0 18 12 29q12 13 29 13h106q20 0 33 -18q7 -11 7 -23v-106q0 -20 -19 -34q-9 -6 -26 -6h-98q-31 0 -42 29q-2 8 -2 14zM83 1087v101q0 17 12 29q12 13 29 13h406q20 0 33 -18q7 -12 7 -23v-105q0 -20 -19 -34q-9 -6 -26 -6h-398q-31 0 -42 29q-2 7 -2 14z" />
    <glyph glyph-name="uni06A4.medi" unicode="&#x6a4;" horiz-adv-x="750" arabic-form="medial" 
d="M687 180h80v-180q-20 4 -106 5l-88 3q-93 1 -171 40q-83 -48 -432 -48v180h111q-35 55 -35 122v184q0 85 57 152q25 26 37 34q63 46 135 46h75q15 1 31 1q14 0 27 -1h57q74 0 139 -49q11 -8 32 -29q24 -30 32 -48q26 -47 26 -113v-249q0 -27 -7 -50zM280 1136v102
q0 18 12 29q12 13 29 13h106q20 0 33 -18q7 -11 7 -23v-106q0 -20 -19 -34q-9 -6 -26 -6h-98q-31 0 -42 29q-2 8 -2 14zM130 877v101q0 17 12 29q12 13 29 13h406q20 0 33 -18q7 -12 7 -23v-105q0 -20 -19 -34q-9 -6 -26 -6h-398q-31 0 -42 29q-2 7 -2 14z" />
    <glyph glyph-name="uni0686.isol" unicode="&#x686;" horiz-adv-x="1100" arabic-form="isolated" 
d="M38 -395v120q1 4 5 39q31 248 259 365l551 312q-61 109 -344 109h-56l-196 -4l-25 173h435q370 0 376 -371l-592 -332q-242 -135 -242 -411h-171zM642 -504q11 30 42 30h98q17 0 26 -7q19 -13 19 -33v-106q0 -12 -7 -23q-13 -18 -33 -18h-106q-17 0 -29 12t-12 30v102
q0 6 2 13zM492 -244q11 29 42 29h398q17 0 26 -6q19 -14 19 -34v-86q0 -12 -7 -23q-13 -18 -33 -18h-406q-17 0 -29 13q-12 11 -12 29v82q0 6 2 14z" />
    <glyph glyph-name="uni0686.fina" unicode="&#x686;" horiz-adv-x="1200" arabic-form="final" 
d="M1198 0q-272 0 -311 126q-8 25 -25 85l-351 -195q-241 -134 -241 -411h-172v120q1 1 5 39q31 249 259 374l555 303q-39 71 -120 89q-29 6 -159 10q-86 2 -321 3l-25 176h435q370 0 376 -371l-163 -93q11 -75 258 -75v-180zM652 -504q11 30 42 30h98q17 0 26 -7
q19 -13 19 -33v-106q0 -12 -7 -23q-13 -18 -33 -18h-106q-17 0 -29 12t-12 30v102q0 6 2 13zM502 -244q11 29 42 29h398q17 0 26 -6q19 -14 19 -34v-86q0 -12 -7 -23q-13 -18 -33 -18h-406q-17 0 -29 13q-12 11 -12 29v82q0 6 2 14z" />
    <glyph glyph-name="uni0686.init" unicode="&#x686;" horiz-adv-x="1000" arabic-form="initial" 
d="M989 348l-412 -235q-138 -79 -304 -100q-68 -9 -323 -13v180h144q198 0 367 76q29 14 332 183q-29 67 -122 92q-24 6 -468 12l-25 176h444q365 0 367 -371zM495 -509q11 30 42 30h98q17 0 26 -7q19 -13 19 -33v-106q0 -12 -7 -23q-13 -18 -33 -18h-106q-17 0 -29 12
t-12 30v102q0 6 2 13zM343 -344v101q0 17 12 29q12 13 29 13h406q20 0 33 -18q7 -12 7 -23v-105q0 -20 -19 -34q-9 -6 -26 -6h-398q-31 0 -42 29q-2 7 -2 14z" />
    <glyph glyph-name="uni0686.medi" unicode="&#x686;" horiz-adv-x="1100" arabic-form="medial" 
d="M1102 0q-249 0 -281 118q-6 21 -13 50l-10 43q-243 -147 -377 -181q-106 -26 -421 -30v180h144q192 0 367 76q50 22 332 183q-30 69 -122 92q-15 4 -110 7q-48 1 -358 5l-25 176h444q361 0 367 -374l-167 -90q0 -75 230 -75v-180zM522 -504q11 30 42 30h98q17 0 26 -7
q19 -13 19 -33v-106q0 -12 -7 -23q-13 -18 -33 -18h-106q-17 0 -29 12t-12 30v102q0 6 2 13zM370 -339v101q0 17 12 29q12 13 29 13h406q20 0 33 -18q7 -12 7 -23v-105q0 -20 -19 -34q-9 -6 -26 -6h-398q-31 0 -42 29q-2 7 -2 14z" />
    <glyph glyph-name="uni0698.isol" unicode="&#x698;" horiz-adv-x="778" arabic-form="isolated" 
d="M436 -7h-2v567q0 17 11 28q12 12 28 12h104q19 0 31 -17q7 -11 7 -22v-576h-1q0 -105 -122 -254q-136 -126 -317 -126h-33q-30 0 -40 28q-2 7 -2 13v97q0 17 11 28t25 14h10q128 0 212 74q78 83 78 134zM428 1102v102q0 18 12 29q12 13 29 13h106q20 0 33 -18
q7 -11 7 -23v-106q0 -20 -19 -34q-9 -6 -26 -6h-98q-31 0 -42 29q-2 8 -2 14zM278 843v101q0 17 12 29q12 13 29 13h406q20 0 33 -18q7 -12 7 -23v-105q0 -20 -19 -34q-9 -6 -26 -6h-398q-31 0 -42 29q-2 7 -2 14z" />
    <glyph glyph-name="uni0698.fina" unicode="&#x698;" horiz-adv-x="754" arabic-form="final" 
d="M625 204q58 -24 131 -24v-180q-76 2 -131 48v-63h-1q0 -105 -122 -254q-136 -126 -317 -126h-33q-30 0 -40 28q-2 7 -2 13v97q0 17 11 28t25 14h10q128 0 212 74q78 83 78 134h-2v567q0 17 11 28q12 12 28 12h104q19 0 31 -17q7 -11 7 -22v-357zM437 1102v102q0 18 12 29
q12 13 29 13h106q20 0 33 -18q7 -11 7 -23v-106q0 -20 -19 -34q-9 -6 -26 -6h-98q-31 0 -42 29q-2 8 -2 14zM287 843v101q0 17 12 29q12 13 29 13h406q20 0 33 -18q7 -12 7 -23v-105q0 -20 -19 -34q-9 -6 -26 -6h-398q-31 0 -42 29q-2 7 -2 14z" />
    <glyph glyph-name="uni06A9.isol" unicode="&#x6a9;" horiz-adv-x="1500" arabic-form="isolated" 
d="M709 1020l665 239l25 -180l-466 -178l416 -460q89 -98 89 -200q0 -120 -84 -184q-75 -57 -198 -57h-1038q-30 0 -40 28q-2 7 -2 13v98q0 17 11 29q12 12 28 12h1052q34 0 63 24t29 57q0 25 -17 43l-498 513q-22 1 -40 15q-4 3 -10 9q-8 10 -11 15q-8 16 -8 36v80
q0 21 13 35q6 6 9 7q6 4 12 6z" />
    <glyph glyph-name="uni06A9.fina" unicode="&#x6a9;" horiz-adv-x="1600" arabic-form="final" 
d="M667 1020l664 239l25 -180l-469 -175l499 -555q0 -1 127 -130q33 -34 98 -39v-180q-153 0 -248 129q-47 -129 -232 -129h-983q-30 0 -40 28q-2 7 -2 13v98q0 17 11 29q12 12 28 12h977q90 0 90 68q0 34 -42 78l-471 491q-21 2 -38 15q-4 3 -10 9q-8 10 -11 15
q-8 16 -8 36v80q0 21 13 35q6 6 9 7q6 4 13 6z" />
    <glyph glyph-name="uni06A9.init" unicode="&#x6a9;" horiz-adv-x="800" arabic-form="initial" 
d="M43 1019l660 240l27 -180l-466 -175l369 -413q39 -44 100 -142q34 -55 34 -104q0 -245 -275 -245h-512v180h512q71 0 71 84q0 39 -23 62l-467 492q-17 2 -32 13q-4 3 -12 11q-18 21 -18 48v59q0 28 32 70z" />
    <glyph glyph-name="uni06A9.medi" unicode="&#x6a9;" horiz-adv-x="1000" arabic-form="medial" 
d="M46 1020l662 239l25 -180l-469 -175l497 -550q84 -94 132 -125q71 -46 114 -49v-180q-170 0 -265 131q-53 -131 -248 -131h-534v180h537q71 0 71 93q0 32 -20 53l-468 491q-21 2 -39 15q-4 3 -10 9q-8 10 -11 15q-8 16 -8 36v80q0 21 13 35q6 6 9 7q6 4 12 6z" />
    <glyph glyph-name="uniFB92" unicode="&#x6af;" horiz-adv-x="1500" arabic-form="isolated" 
d="M1318 1361l-628 -227l-9 69l632 227zM698 1020l665 239l25 -180l-466 -178l416 -460q89 -98 89 -200q0 -120 -84 -184q-75 -57 -198 -57h-1032q-30 0 -40 28q-2 7 -2 13v98q0 17 11 29q12 12 28 12h1046q34 0 63 24t29 57q0 25 -17 43l-498 513q-22 1 -40 15q-4 3 -10 9
q-8 10 -11 15q-8 16 -8 36v80q0 21 13 35q6 6 9 7q6 4 12 6z" />
    <glyph glyph-name="uni06AF.fina" unicode="&#x6af;" horiz-adv-x="1636" arabic-form="final" 
d="M1321 1361l-626 -227l-9 69l631 227zM702 1020l664 239l25 -180l-469 -175l499 -555q0 -1 127 -130q33 -34 98 -39v-180q-153 0 -248 129q-47 -129 -232 -129h-1023q-30 0 -40 28q-2 7 -2 13v98q0 17 11 29q12 12 28 12h1017q90 0 90 68q0 34 -42 78l-471 491
q-20 2 -37 15q-4 3 -10 9q-8 10 -11 15q-8 16 -8 36v80q0 21 13 35q6 6 9 7q6 4 12 6z" />
    <glyph glyph-name="uni06AF.init" unicode="&#x6af;" horiz-adv-x="800" arabic-form="initial" 
d="M660 1361l-629 -227l-8 69l632 227zM40 1020l665 239l25 -180l-474 -180l463 -511q50 -56 50 -149q0 -115 -89 -180q-79 -59 -197 -59h-526v180h526q103 0 103 68q0 37 -33 72l-478 497q-22 1 -40 15q-4 3 -10 9q-8 10 -11 15q-8 16 -8 36v80q0 21 13 35q6 6 9 7
q6 4 12 6z" />
    <glyph glyph-name="uni06AF.medi" unicode="&#x6af;" horiz-adv-x="983" arabic-form="medial" 
d="M655 1361l-629 -227l-8 69l633 227zM38 1020l661 239l29 -180l-480 -180l502 -550q53 -59 158 -150q44 -22 91 -19v-180q-192 0 -285 144q-61 -144 -228 -144h-509v180h512q92 0 92 68q0 34 -42 78l-470 491q-20 2 -37 15q-4 3 -10 9q-8 10 -11 15q-8 16 -8 36v80
q0 21 13 35q6 6 9 7q6 4 13 6z" />
    <glyph glyph-name="uni06C0.isol" unicode="&#x6c0;" horiz-adv-x="900" arabic-form="isolated" 
d="M808 305q0 -140 -107 -234q-103 -91 -245 -91q-147 0 -241.5 100.5t-94.5 248.5q0 154 153 307l122 122l329 -230q84 -87 84 -223zM333 1135q47 0 98 -30q-26 -51 -33 -66q-39 22 -63 22h-5q-34 0 -58 -31q-8 -15 -8 -30v-3q0 -33 29 -59q17 -12 36 -12h1q40 0 138 52h1
l37 -76l-290 -145q-29 55 -35 69l74 40v1q-63 41 -63 119q0 62 42 107q43 42 99 42z" />
    <glyph glyph-name="uni06C0.fina" unicode="&#x6c0;" horiz-adv-x="1100" arabic-form="final" 
d="M487 868l135 -122l-118 -122q100 97 216 97q129 0 211 -82.5t82 -210.5q0 -118 -99 -248h193v-180l-143 3q-143 1 -259 60q-227 -133 -370 -133q-117 0 -206 95t-89 214q0 202 447 629zM347 115q74 0 176 61q-111 57 -111 229q0 109 55 171q-238 -240 -238 -348
q0 -113 118 -113z" />
    <glyph glyph-name="uni0649.init" unicode="&#x649;" horiz-adv-x="507" arabic-form="initial" 
d="M-27 0q-16 0 -25 6q-18 13 -18 32v103q0 11 7 22q12 17 31 17h206q75 0 103.5 31t28.5 107v243q0 11 7 22q12 17 31 17h102q16 0 28 -12q11 -11 11 -28v-25h1v-242q0 -119 -69 -203q-74 -90 -189 -90h-255z" />
    <glyph glyph-name="uni0649.medi" unicode="&#x649;" horiz-adv-x="600" arabic-form="medial" 
d="M207 180q75 0 103.5 30.5t28.5 107.5v242q0 17 11 28q12 12 28 12h106q19 0 31 -17q7 -11 7 -22v-243q0 -138 88 -138v-180q-104 0 -176 70q-92 -70 -174 -70h-244q-30 0 -40 28q-2 7 -2 13v99q0 17 11 28q12 12 28 12h194z" />
    <glyph glyph-name="uni06CC.isol" unicode="&#x6cc;" horiz-adv-x="1200" arabic-form="isolated" 
d="M949 432q-93 0 -129 -74q-8 -20 -13 -43.5t-7 -57.5q94 -1 168.5 -8.5t109.5 -19.5q44 -26 73.5 -76.5t29.5 -138.5q0 -81 -42 -178t-113 -158q-108 -73 -251 -73h-274q-74 0 -148 34t-134 103q-119 137 -119 322v255q0 16 9 26q11 12 26 12h99q17 0 29 -17q6 -10 6 -20
v-278q0 -115 86 -189q83 -73 180 -73h231q104 0 186 70q59 69 59 122q0 91 -88 110q-33 6 -46 6h-249v205q0 125 89 216q90 91 225 91h211q16 0 26 -10q11 -11 11 -26v-97q0 -17 -16 -29q-10 -6 -20 -6h-205z" />
    <glyph glyph-name="uni06CC.fina" unicode="&#x6cc;" horiz-adv-x="842" arabic-form="final" 
d="M54 4q0 312 314 312h70q183 0 264 -88q40 -47 113 -48h33v-180h-119q-83 0 -126.5 39.5t-44.5 41.5q-53 40 -138 45h-60q-109 -1 -109 -121v-100q0 -119 115 -120h1002q17 0 28 -10q12 -12 12 -28v-104q0 -19 -17 -31q-11 -7 -22 -7h-991q-324 0 -324 299v100z" />
    <glyph glyph-name="uni06CC.init" unicode="&#x6cc;" horiz-adv-x="607" arabic-form="initial" 
d="M13 0q-16 0 -25 6q-18 13 -18 32v103q0 11 7 22q12 17 31 17h206q75 0 103.5 31t28.5 107v243q0 11 7 22q12 17 31 17h102q16 0 28 -12q11 -11 11 -28v-25h1v-242q0 -119 -69 -203q-74 -90 -189 -90h-255zM60 -352v101q0 17 12 29q12 13 29 13h406q20 0 33 -18
q7 -12 7 -23v-105q0 -20 -19 -34q-9 -6 -26 -6h-398q-31 0 -42 29q-2 7 -2 14z" />
    <glyph glyph-name="uni06CC.medi" unicode="&#x6cc;" horiz-adv-x="600" arabic-form="medial" 
d="M207 180q75 0 103.5 30.5t28.5 107.5v242q0 17 11 28q12 12 28 12h106q19 0 31 -17q7 -11 7 -22v-243q0 -138 88 -138v-180q-104 0 -176 70q-92 -70 -174 -70h-244q-30 0 -40 28q-2 7 -2 13v99q0 17 11 28q12 12 28 12h194zM60 -352v101q0 17 12 29q12 13 29 13h406
q20 0 33 -18q7 -12 7 -23v-105q0 -20 -19 -34q-9 -6 -26 -6h-398q-31 0 -42 29q-2 7 -2 14z" />
    <glyph glyph-name="uni0020_uni064C_uni0651" unicode="&#xfc5e;" horiz-adv-x="325" arabic-form="isolated" 
d="M472 752q0 -62 -35 -105q-37 -47 -97 -47q-45 0 -110 57q-47 -57 -110 -57q-57 0 -91 49q-29 43 -29 103h45q0 -100 81 -100q80 0 83 100h50q0 -100 83 -100q81 0 82 100h48zM412 1068q0 -91 -49 -117l-283 -151l-28 48q51 33 63 53q0 34 -45 34q-29 0 -49 -11l-20 36
q56 19 85 19q57 0 72 -78l77 45q-79 45 -79 114q0 90 87 124q29 11 37 11q54 0 93 -37t39 -90zM366 1069q0 33 -26.5 56t-59.5 23q-79 0 -79 -87q0 -78 85 -78q26 0 53 29.5t27 56.5z" />
    <glyph glyph-name="uni0020_uni064D_uni0651" unicode="&#xfc5f;" horiz-adv-x="3" arabic-form="isolated" 
d="M475 800q0 -62 -35 -105q-37 -47 -97 -47q-45 0 -110 57q-47 -57 -110 -57q-57 0 -91 49q-29 43 -29 103h45q0 -100 81 -100q80 0 83 100h50q0 -100 83 -100q81 0 82 100h48zM403 1113l-315 -169l-27 47l315 174zM403 969l-315 -169l-27 48l315 175z" />
    <glyph glyph-name="uni0020_uni064E_uni0651" unicode="&#xfc60;" arabic-form="isolated" 
d="M501 752q0 -62 -35 -105q-37 -47 -97 -47q-45 0 -110 57q-47 -57 -110 -57q-57 0 -91 49q-29 43 -29 103h45q0 -100 81 -100q80 0 83 100h50q0 -100 83 -100q81 0 82 100h48zM343 964l-315 -168l-28 47l315 176z" />
    <glyph glyph-name="uni0020_uni064F_uni0651" unicode="&#xfc61;" arabic-form="isolated" 
d="M472 598q0 -62 -35 -105q-37 -47 -97 -47q-45 0 -110 57q-47 -57 -110 -57q-57 0 -91 49q-29 43 -29 103h45q0 -100 81 -100q80 0 83 100h50q0 -100 83 -100q81 0 82 100h48zM326 911q0 -89 -50 -116l-227 -121l-28 47l126 70q-78 45 -78 113q0 91 90 125q26 10 33 10
q55 0 94.5 -37t39.5 -91zM279 913q0 33 -26.5 55.5t-60.5 22.5q-78 0 -78 -86q0 -79 86 -79q26 0 52.5 30t26.5 57z" />
    <glyph glyph-name="uni0020_uni0650_uni0651" unicode="&#xfc62;" horiz-adv-x="12" arabic-form="isolated" 
d="M484 600q0 -62 -35 -105q-37 -47 -97 -47q-45 0 -110 57q-47 -57 -110 -57q-57 0 -91 49q-29 43 -29 103h45q0 -100 81 -100q80 0 83 100h50q0 -100 83 -100q81 0 82 100h48zM395 795l-314 -169l-29 48l315 175z" />
    <glyph glyph-name="uni0020_uni0651_uni0670" unicode="&#xfc63;" arabic-form="isolated" 
d="M472 600q0 -62 -35 -105q-37 -47 -97 -47q-45 0 -110 57q-47 -57 -110 -57q-57 0 -91 49q-29 43 -29 103h45q0 -100 81 -100q80 0 83 100h50q0 -100 83 -100q81 0 82 100h48zM219 676q0 50 -6 89t-17 71.5t-25.5 60t-30.5 53.5l63 57q14 -22 26.5 -47t22 -54.5
t15.5 -64.5t6 -79q0 -7 -1 -18.5t-3 -24.5t-3.5 -25t-2.5 -18h-44z" />
    <glyph glyph-name="uniFDFC" unicode="&#xfdfc;" horiz-adv-x="2400" arabic-form="isolated" 
d="M1033 -48q0 -145 -99.5 -241t-245.5 -96h-319q-146 0 -245.5 96t-99.5 241v288q0 11 7 22q12 17 31 17h104q16 0 28 -12q11 -11 11 -28v-279q0 -112 107 -148q35 -11 69 -12h295q34 1 69 12q107 36 107 148v1145q0 17 11 28q12 12 28 12h104q19 0 31 -17q7 -11 7 -22
v-1154zM1336 1101h1v-747q0 -123 40 -151q32 -23 123 -23v-180q-142 0 -226 46q-117 64 -117 229v826h1v14q0 17 11 28q12 12 28 12h101q19 0 31 -17q7 -11 7 -22v-15zM1492 0q-16 0 -25 6q-18 13 -18 32v103q0 11 7 22q12 17 31 17h206q75 0 103.5 31t28.5 107v243
q0 11 7 22q12 17 31 17h102q16 0 28 -12q11 -11 11 -28v-25h1v-242q0 -119 -69 -203q-74 -90 -189 -90h-255zM2179 -7h-2v567q0 17 11 28q12 12 28 12h104q19 0 31 -17q7 -11 7 -22v-576h-1q0 -105 -122 -254q-136 -126 -317 -126h-33q-30 0 -40 28q-2 7 -2 13v97
q0 17 11 28t25 14h10q128 0 212 74q78 83 78 134zM1260 -352v82q0 17 12 29q12 13 29 13h406q20 0 33 -18q7 -12 7 -23v-86q0 -20 -19 -34q-9 -6 -26 -6h-398q-31 0 -42 29q-2 7 -2 14z" />
    <glyph glyph-name="uni0621.isol" unicode="&#x621;" horiz-adv-x="600" arabic-form="isolated" 
d="M287 634q81 0 167 -51q-43 -88 -56 -112q-66 37 -107 37h-9q-58 0 -98 -53q-15 -25 -15 -52v-4q0 -57 50 -101q29 -21 62 -21h2q68 0 235 89h2l63 -129q-1 -1 -496 -248q-48 94 -59 117l126 69v1q-107 71 -107 204q0 105 71 182q74 72 169 72z" />
    <glyph glyph-name="uni0622.isol" unicode="&#x622;" horiz-adv-x="604" arabic-form="isolated" 
d="M416 37q0 -19 -18 -32q-9 -6 -25 -6h-93q-30 0 -40 28q-2 7 -2 13v1071q0 17 11 28q12 12 28 12h101q19 0 31 -17q7 -11 7 -22v-1075zM235 1432h415q1 0 1 -1v-146q0 -2 -1 -2h-325q-108 0 -145 -15q-28 -9 -46 -21q-31 -25 -40 -48q-9 -18 -17 -38l-2 -1l-151 55l-1 1
q26 57 69 114q37 41 51 49q71 53 192 53z" />
    <glyph glyph-name="uni0622.fina" unicode="&#x622;" horiz-adv-x="451" arabic-form="final" 
d="M291 1101h1v-747q0 -123 40 -151q32 -23 123 -23v-180q-142 0 -226 46q-117 64 -117 229v826h1v14q0 17 11 28q12 12 28 12h101q19 0 31 -17q7 -11 7 -22v-15zM94 1432h415q1 0 1 -1v-146q0 -2 -1 -2h-325q-108 0 -145 -15q-28 -9 -46 -21q-31 -25 -40 -48
q-9 -18 -17 -38l-2 -1l-151 55l-1 1q26 57 69 114q37 41 51 49q71 53 192 53z" />
    <glyph glyph-name="uni0623.isol" unicode="&#x623;" horiz-adv-x="354" arabic-form="isolated" 
d="M273 37q0 -19 -18 -32q-9 -6 -25 -6h-93q-30 0 -40 28q-2 7 -2 13v1071q0 17 11 28q12 12 28 12h101q19 0 31 -17q7 -11 7 -22v-1075zM173 1578q47 0 98 -30q-26 -51 -33 -66q-39 22 -63 22h-5q-34 0 -58 -31q-8 -15 -8 -30v-3q0 -33 29 -59q17 -12 36 -12h1q40 0 138 52
h1l37 -76l-290 -145q-29 55 -35 69l74 40v1q-63 41 -63 119q0 62 42 107q43 42 99 42z" />
    <glyph glyph-name="uni0623.fina" unicode="&#x623;" horiz-adv-x="400" arabic-form="final" 
d="M247 1101h1v-747q0 -123 40 -151q32 -23 123 -23v-180q-142 0 -226 46q-117 64 -117 229v826h1v14q0 17 11 28q12 12 28 12h101q19 0 31 -17q7 -11 7 -22v-15zM162 1570q47 0 98 -30q-26 -51 -33 -66q-39 22 -63 22h-5q-34 0 -58 -31q-8 -15 -8 -30v-3q0 -33 29 -59
q17 -12 36 -12h1q40 0 138 52h1l37 -76l-290 -145q-29 55 -35 69l74 40v1q-63 41 -63 119q0 62 42 107q43 42 99 42z" />
    <glyph glyph-name="uni0624.isol" unicode="&#x624;" horiz-adv-x="800" arabic-form="isolated" 
d="M741 37q0 -180 -135.5 -306t-316.5 -126h-133q-30 0 -40 28q-2 7 -2 13v97q0 17 11 28t25 12v2h110q128 0 212 74t89 141h-240q-72 0 -137 47q-13 11 -29 27q-62 69 -62 158v186q0 85 57 152q25 26 37 34q63 46 135 46h190q74 0 139 -49q11 -8 32 -29q24 -30 32 -48
q26 -47 26 -113v-374zM406 1128q47 0 98 -30q-26 -51 -33 -66q-39 22 -63 22h-5q-34 0 -58 -31q-8 -15 -8 -30v-3q0 -33 29 -59q17 -12 36 -12h1q40 0 138 52h1l37 -76l-290 -145q-29 55 -35 69l74 40v1q-63 41 -63 119q0 62 42 107q43 42 99 42z" />
    <glyph glyph-name="uni0624.fina" unicode="&#x624;" horiz-adv-x="800" arabic-form="final" 
d="M749 180h54v-180h-54v-13q0 -130 -135.5 -256t-316.5 -126h-143q-30 0 -40 28q-2 7 -2 13v97q0 17 11 28t25 12v2h120q128 0 212 74t89 141h-240q-72 0 -137 47q-13 11 -29 27q-62 69 -62 158v186q0 85 57 152q25 26 37 34q63 46 135 46h190q74 0 139 -49q11 -8 32 -29
q24 -30 32 -48q26 -47 26 -113v-231zM426 1128q47 0 98 -30q-26 -51 -33 -66q-39 22 -63 22h-5q-34 0 -58 -31q-8 -15 -8 -30v-3q0 -33 29 -59q17 -12 36 -12h1q40 0 138 52h1l37 -76l-290 -145q-29 55 -35 69l74 40v1q-63 41 -63 119q0 62 42 107q43 42 99 42z" />
    <glyph glyph-name="uni0625.isol" unicode="&#x625;" horiz-adv-x="349" arabic-form="isolated" 
d="M255 38q0 -19 -18 -32q-9 -6 -25 -6h-93q-30 0 -40 28q-2 7 -2 13v1069q0 17 11 28q12 12 28 12h101q19 0 31 -17q7 -11 7 -22v-1073zM155 -72q47 0 98 -30q-26 -51 -33 -66q-39 22 -63 22h-5q-34 0 -58 -31q-8 -15 -8 -30v-3q0 -33 29 -59q17 -12 36 -12h1q40 0 138 52
h1l37 -76l-290 -145q-29 55 -35 69l74 40v1q-63 41 -63 119q0 62 42 107q43 42 99 42z" />
    <glyph glyph-name="uni0625.fina" unicode="&#x625;" horiz-adv-x="400" arabic-form="final" 
d="M245 1101h1v-747q0 -123 40 -151q32 -23 123 -23v-180q-142 0 -226 46q-117 64 -117 229v826h1v14q0 17 11 28q12 12 28 12h101q19 0 31 -17q7 -11 7 -22v-15zM218 -22q47 0 98 -30q-26 -51 -33 -66q-39 22 -63 22h-5q-34 0 -58 -31q-8 -15 -8 -30v-3q0 -33 29 -59
q17 -12 36 -12h1q40 0 138 52h1l37 -76l-290 -145q-29 55 -35 69l74 40v1q-63 41 -63 119q0 62 42 107q43 42 99 42z" />
    <glyph glyph-name="uni0626.isol" unicode="&#x626;" horiz-adv-x="1500" arabic-form="isolated" 
d="M348 -9q-324 0 -324 299q0 312 314 312h150l-58 -190h-100q-109 -1 -109 -121q0 -119 115 -120h1122q17 0 28 -10q12 -12 12 -28v-104q0 -19 -17 -31q-11 -7 -22 -7h-1111z" />
    <glyph glyph-name="uni0626.fina" unicode="&#x626;" horiz-adv-x="1200" arabic-form="final" 
d="M253 -6q0 -69 90 -142q83 -67 185 -67h231q96 0 158 51q66 55 66 164l-165 -3q-220 0 -225 183h615v-180h-49l1 -88q0 -97 -119 -204q-116 -103 -275 -103h-277q-163 0 -305 156q-111 123 -111 302v132h1v39q0 17 11 28q12 12 28 12h102q19 0 31 -17q7 -11 7 -22v-241z
" />
    <glyph glyph-name="uni0626.init" unicode="&#x626;" horiz-adv-x="507" arabic-form="initial" 
d="M-27 0q-16 0 -25 6q-18 13 -18 32v103q0 11 7 22q12 17 31 17h206q75 0 103.5 31t28.5 107v243q0 11 7 22q12 17 31 17h102q16 0 28 -12q11 -11 11 -28v-25h1v-242q0 -119 -69 -203q-74 -90 -189 -90h-255zM140 1018q47 0 98 -30q-26 -51 -33 -66q-39 22 -63 22h-5
q-34 0 -58 -31q-8 -15 -8 -30v-3q0 -33 29 -59q17 -12 36 -12h1q40 0 138 52h1l37 -76l-290 -145q-29 55 -35 69l74 40v1q-63 41 -63 119q0 62 42 107q43 42 99 42z" />
    <glyph glyph-name="uni0626.medi" unicode="&#x626;" horiz-adv-x="600" arabic-form="medial" 
d="M197 180q75 0 103.5 30.5t28.5 107.5v242q0 17 11 28q12 12 28 12h106q19 0 31 -17q7 -11 7 -22v-243q0 -138 88 -138v-180q-104 0 -176 70q-92 -70 -174 -70h-244q-30 0 -40 28q-2 7 -2 13v99q0 17 11 28q12 12 28 12h194zM149 1005q47 0 98 -30q-26 -51 -33 -66
q-39 22 -63 22h-5q-34 0 -58 -31q-8 -15 -8 -30v-3q0 -33 29 -59q17 -12 36 -12h1q40 0 138 52h1l37 -76l-290 -145q-29 55 -35 69l74 40v1q-63 41 -63 119q0 62 42 107q43 42 99 42z" />
    <glyph glyph-name="uniFE8D" unicode="&#x627;" horiz-adv-x="300" arabic-form="isolated" 
d="M278 38q0 -19 -18 -32q-9 -6 -25 -6h-93q-30 0 -40 28q-2 7 -2 13v1069q0 17 11 28q12 12 28 12h101q19 0 31 -17q7 -11 7 -22v-1073z" />
    <glyph glyph-name="uniFE8E" unicode="&#x627;" horiz-adv-x="453" arabic-form="final" 
d="M300 1101h1v-747q0 -123 40 -151q32 -23 123 -23v-180q-142 0 -226 46q-117 64 -117 229v826h1v14q0 17 11 28q12 12 28 12h101q19 0 31 -17q7 -11 7 -22v-15z" />
    <glyph glyph-name="uni0628.isol" unicode="&#x628;" horiz-adv-x="1400" arabic-form="isolated" 
d="M79 0q-16 0 -25 6q-18 13 -18 32v103q0 11 7 22q12 17 31 17h1006q75 0 103.5 31t28.5 107v243q0 11 7 22q12 17 31 17h102q16 0 28 -12q11 -11 11 -28v-25h1v-242q0 -119 -69 -203q-74 -90 -189 -90h-1055zM621 -352v102q0 18 12 29q12 13 29 13h106q20 0 33 -18
q7 -11 7 -23v-106q0 -20 -19 -34q-9 -6 -26 -6h-98q-31 0 -42 29q-2 8 -2 14z" />
    <glyph glyph-name="uni0628.fina" unicode="&#x628;" horiz-adv-x="1400" arabic-form="final" 
d="M999 180q75 0 103.5 30.5t28.5 107.5v242q0 17 11 28q12 12 28 12h106q19 0 31 -17q7 -11 7 -22v-243q0 -138 88 -138v-180q-104 0 -176 70q-92 -70 -174 -70h-944q-30 0 -40 28q-2 7 -2 13v99q0 17 11 28q12 12 28 12h894zM600 -352v102q0 18 12 29q12 13 29 13h106
q20 0 33 -18q7 -11 7 -23v-106q0 -20 -19 -34q-9 -6 -26 -6h-98q-31 0 -42 29q-2 8 -2 14z" />
    <glyph glyph-name="uni0628.init" unicode="&#x628;" horiz-adv-x="437" arabic-form="initial" 
d="M3 0q-16 0 -25 6q-18 13 -18 32v103q0 11 7 22q12 17 31 17h56q75 0 103.5 31t28.5 107v243q0 11 7 22q12 17 31 17h102q16 0 28 -12q11 -11 11 -28v-25h1v-242q0 -119 -69 -203q-74 -90 -189 -90h-105zM59 -352v102q0 18 12 29q12 13 29 13h106q20 0 33 -18q7 -11 7 -23
v-106q0 -20 -19 -34q-9 -6 -26 -6h-98q-31 0 -42 29q-2 8 -2 14z" />
    <glyph glyph-name="uni0628.medi" unicode="&#x628;" horiz-adv-x="457" arabic-form="medial" 
d="M57 180q75 0 103.5 30.5t28.5 107.5v242q0 17 11 28q12 12 28 12h106q19 0 31 -17q7 -11 7 -22v-243q0 -138 88 -138v-180q-104 0 -176 70q-92 -70 -174 -70h-104q-30 0 -40 28q-2 7 -2 13v99q0 17 11 28q12 12 28 12h54zM59 -352v102q0 18 12 29q12 13 29 13h106
q20 0 33 -18q7 -11 7 -23v-106q0 -20 -19 -34q-9 -6 -26 -6h-98q-31 0 -42 29q-2 8 -2 14z" />
    <glyph glyph-name="uni0629.isol" unicode="&#x629;" horiz-adv-x="800" arabic-form="isolated" 
d="M778 305q0 -140 -107 -234q-103 -91 -245 -91q-147 0 -241.5 100.5t-94.5 248.5q0 154 153 307l122 122l329 -230q84 -87 84 -223zM170 943v101q0 17 12 29q12 13 29 13h406q20 0 33 -18q7 -12 7 -23v-105q0 -20 -19 -34q-9 -6 -26 -6h-398q-31 0 -42 29q-2 7 -2 14z" />
    <glyph glyph-name="uni0629.fina" unicode="&#x629;" horiz-adv-x="1100" arabic-form="final" 
d="M1108 0v0q-78 0 -132 31q-27 16 -188 165q-102 -216 -329 -216q-149 0 -246 97t-97 246q0 156 158 323l22 22q2 3 5 6l66 71q7 8 16 11l24 1q9 -2 16 -8l74 -69q3 -3 5 -6l432 -379q68 -72 92 -87q33 -20 82 -28v-180zM170 943v101q0 17 12 29q12 13 29 13h406
q20 0 33 -18q7 -12 7 -23v-105q0 -20 -19 -34q-9 -6 -26 -6h-398q-31 0 -42 29q-2 7 -2 14z" />
    <glyph glyph-name="uni062A.isol" unicode="&#x62a;" horiz-adv-x="1500" arabic-form="isolated" 
d="M159 0q-16 0 -25 6q-18 13 -18 32v103q0 11 7 22q12 17 31 17h1006q75 0 103.5 31t28.5 107v243q0 11 7 22q12 17 31 17h102q16 0 28 -12q11 -11 11 -28v-25h1v-242q0 -119 -69 -203q-74 -90 -189 -90h-1055zM521 693v101q0 17 12 29q12 13 29 13h406q20 0 33 -18
q7 -12 7 -23v-105q0 -20 -19 -34q-9 -6 -26 -6h-398q-31 0 -42 29q-2 7 -2 14z" />
    <glyph glyph-name="uni062A.fina" unicode="&#x62a;" horiz-adv-x="1400" arabic-form="final" 
d="M999 180q75 0 103.5 30.5t28.5 107.5v242q0 17 11 28q12 12 28 12h106q19 0 31 -17q7 -11 7 -22v-243q0 -138 88 -138v-180q-104 0 -176 70q-92 -70 -174 -70h-944q-30 0 -40 28q-2 7 -2 13v99q0 17 11 28q12 12 28 12h894zM461 693v101q0 17 12 29q12 13 29 13h406
q20 0 33 -18q7 -12 7 -23v-105q0 -20 -19 -34q-9 -6 -26 -6h-398q-31 0 -42 29q-2 7 -2 14z" />
    <glyph glyph-name="uni062A.init" unicode="&#x62a;" horiz-adv-x="556" arabic-form="initial" 
d="M23 0q-16 0 -25 6q-18 13 -18 32v103q0 11 7 22q12 17 31 17h206q75 0 103.5 31t28.5 107v243q0 11 7 22q12 17 31 17h102q16 0 28 -12q11 -11 11 -28v-25h1v-242q0 -119 -69 -203q-74 -90 -189 -90h-255zM49 843v101q0 17 12 29q12 13 29 13h406q20 0 33 -18
q7 -12 7 -23v-105q0 -20 -19 -34q-9 -6 -26 -6h-398q-31 0 -42 29q-2 7 -2 14z" />
    <glyph glyph-name="uni062A.medi" unicode="&#x62a;" horiz-adv-x="600" arabic-form="medial" 
d="M207 180q75 0 103.5 30.5t28.5 107.5v242q0 17 11 28q12 12 28 12h106q19 0 31 -17q7 -11 7 -22v-243q0 -138 88 -138v-180q-104 0 -176 70q-92 -70 -174 -70h-244q-30 0 -40 28q-2 7 -2 13v99q0 17 11 28q12 12 28 12h194zM40 843v101q0 17 12 29q12 13 29 13h406
q20 0 33 -18q7 -12 7 -23v-105q0 -20 -19 -34q-9 -6 -26 -6h-398q-31 0 -42 29q-2 7 -2 14z" />
    <glyph glyph-name="uni062B.isol" unicode="&#x62b;" horiz-adv-x="1500" arabic-form="isolated" 
d="M159 0q-16 0 -25 6q-18 13 -18 32v103q0 11 7 22q12 17 31 17h1006q75 0 103.5 31t28.5 107v243q0 11 7 22q12 17 31 17h102q16 0 28 -12q11 -11 11 -28v-25h1v-242q0 -119 -69 -203q-74 -90 -189 -90h-1055zM671 956v102q0 18 12 29q12 13 29 13h106q20 0 33 -18
q7 -11 7 -23v-106q0 -20 -19 -34q-9 -6 -26 -6h-98q-31 0 -42 29q-2 8 -2 14zM521 697v101q0 17 12 29q12 13 29 13h406q20 0 33 -18q7 -12 7 -23v-105q0 -20 -19 -34q-9 -6 -26 -6h-398q-31 0 -42 29q-2 7 -2 14z" />
    <glyph glyph-name="uni062B.fina" unicode="&#x62b;" horiz-adv-x="1400" arabic-form="final" 
d="M999 180q75 0 103.5 30.5t28.5 107.5v242q0 17 11 28q12 12 28 12h106q19 0 31 -17q7 -11 7 -22v-243q0 -138 88 -138v-180q-104 0 -176 70q-92 -70 -174 -70h-944q-30 0 -40 28q-2 7 -2 13v99q0 17 11 28q12 12 28 12h894zM563 956v102q0 18 12 29q12 13 29 13h106
q20 0 33 -18q7 -11 7 -23v-106q0 -20 -19 -34q-9 -6 -26 -6h-98q-31 0 -42 29q-2 8 -2 14zM413 697v101q0 17 12 29q12 13 29 13h406q20 0 33 -18q7 -12 7 -23v-105q0 -20 -19 -34q-9 -6 -26 -6h-398q-31 0 -42 29q-2 7 -2 14z" />
    <glyph glyph-name="uni062B.init" unicode="&#x62b;" horiz-adv-x="556" arabic-form="initial" 
d="M23 0q-16 0 -25 6q-18 13 -18 32v103q0 11 7 22q12 17 31 17h206q75 0 103.5 31t28.5 107v243q0 11 7 22q12 17 31 17h102q16 0 28 -12q11 -11 11 -28v-25h1v-242q0 -119 -69 -203q-74 -90 -189 -90h-255zM197 1102v102q0 18 12 29q12 13 29 13h106q20 0 33 -18
q7 -11 7 -23v-106q0 -20 -19 -34q-9 -6 -26 -6h-98q-31 0 -42 29q-2 8 -2 14zM47 843v101q0 17 12 29q12 13 29 13h406q20 0 33 -18q7 -12 7 -23v-105q0 -20 -19 -34q-9 -6 -26 -6h-398q-31 0 -42 29q-2 7 -2 14z" />
    <glyph glyph-name="uni062B.medi" unicode="&#x62b;" horiz-adv-x="600" arabic-form="medial" 
d="M207 180q75 0 103.5 30.5t28.5 107.5v242q0 17 11 28q12 12 28 12h106q19 0 31 -17q7 -11 7 -22v-243q0 -138 88 -138v-180q-104 0 -176 70q-92 -70 -174 -70h-244q-30 0 -40 28q-2 7 -2 13v99q0 17 11 28q12 12 28 12h194zM190 1102v102q0 18 12 29q12 13 29 13h106
q20 0 33 -18q7 -11 7 -23v-106q0 -20 -19 -34q-9 -6 -26 -6h-98q-31 0 -42 29q-2 8 -2 14zM40 843v101q0 17 12 29q12 13 29 13h406q20 0 33 -18q7 -12 7 -23v-105q0 -20 -19 -34q-9 -6 -26 -6h-398q-31 0 -42 29q-2 7 -2 14z" />
    <glyph glyph-name="uni062C.isol" unicode="&#x62c;" horiz-adv-x="1100" arabic-form="isolated" 
d="M78 -395v120q1 4 5 39q31 248 259 365l551 312q-61 109 -344 109h-56l-196 -4l-25 173h435q370 0 376 -371l-592 -332q-242 -135 -242 -411h-171zM613 -344v102q0 18 12 29q12 13 29 13h106q20 0 33 -18q7 -11 7 -23v-106q0 -20 -19 -34q-9 -6 -26 -6h-98q-31 0 -42 29
q-2 8 -2 14z" />
    <glyph glyph-name="uni062C.fina" unicode="&#x62c;" horiz-adv-x="1200" arabic-form="final" 
d="M1208 0q-272 0 -311 126q-8 25 -25 85l-351 -195q-241 -134 -241 -411h-172v120q1 1 5 39q31 249 259 374l555 303q-39 71 -120 89q-29 6 -159 10q-86 2 -321 3l-25 176h435q370 0 376 -371l-163 -93q11 -75 258 -75v-180zM613 -344v102q0 18 12 29q12 13 29 13h106
q20 0 33 -18q7 -11 7 -23v-106q0 -20 -19 -34q-9 -6 -26 -6h-98q-31 0 -42 29q-2 8 -2 14z" />
    <glyph glyph-name="uni062C.init" unicode="&#x62c;" horiz-adv-x="1100" arabic-form="initial" 
d="M1019 348l-412 -235q-138 -79 -304 -100q-68 -9 -323 -13v180h144q198 0 367 76q29 14 332 183q-29 67 -122 92q-24 6 -468 12l-25 176h444q365 0 367 -371zM700 -352v102q0 18 12 29q12 13 29 13h106q20 0 33 -18q7 -11 7 -23v-106q0 -20 -19 -34q-9 -6 -26 -6h-98
q-31 0 -42 29q-2 8 -2 14z" />
    <glyph glyph-name="uni062C.medi" unicode="&#x62c;" horiz-adv-x="1100" arabic-form="medial" 
d="M1102 0q-249 0 -281 118q-6 21 -13 50l-10 43q-243 -147 -377 -181q-106 -26 -421 -30v180h144q192 0 367 76q50 22 332 183q-30 69 -122 92q-15 4 -110 7q-48 1 -358 5l-25 176h444q361 0 367 -374l-167 -90q0 -75 230 -75v-180zM643 -352v102q0 18 12 29q12 13 29 13
h106q20 0 33 -18q7 -11 7 -23v-106q0 -20 -19 -34q-9 -6 -26 -6h-98q-31 0 -42 29q-2 8 -2 14z" />
    <glyph glyph-name="uni062D.isol" unicode="&#x62d;" horiz-adv-x="1100" arabic-form="isolated" 
d="M78 -395v120q1 4 5 39q31 248 259 365l551 312q-61 109 -344 109h-56l-196 -4l-25 173h435q370 0 376 -371l-592 -332q-242 -135 -242 -411h-171z" />
    <glyph glyph-name="uni062D.fina" unicode="&#x62d;" horiz-adv-x="1200" arabic-form="final" 
d="M1208 0q-272 0 -311 126q-8 25 -25 85l-351 -195q-241 -134 -241 -411h-172v120q1 1 5 39q31 249 259 374l555 303q-39 71 -120 89q-29 6 -159 10q-86 2 -321 3l-25 176h435q370 0 376 -371l-163 -93q11 -75 258 -75v-180z" />
    <glyph glyph-name="uni062D.init" unicode="&#x62d;" horiz-adv-x="1000" arabic-form="initial" 
d="M969 348l-412 -235q-138 -79 -304 -100q-68 -9 -323 -13v180h144q198 0 367 76q29 14 332 183q-29 67 -122 92q-24 6 -468 12l-25 176h444q365 0 367 -371z" />
    <glyph glyph-name="uni062D.medi" unicode="&#x62d;" horiz-adv-x="1100" arabic-form="medial" 
d="M1092 0q-249 0 -281 118q-6 21 -13 50l-10 43q-243 -147 -377 -181q-106 -26 -421 -30v180h144q192 0 367 76q50 22 332 183q-30 69 -122 92q-15 4 -110 7q-48 1 -358 5l-25 176h444q361 0 367 -374l-167 -90q0 -75 230 -75v-180z" />
    <glyph glyph-name="uni062E.isol" unicode="&#x62e;" horiz-adv-x="1100" arabic-form="isolated" 
d="M78 -395v120q1 4 5 39q31 248 259 365l551 312q-61 109 -344 109h-56l-196 -4l-25 173h435q370 0 376 -371l-592 -332q-242 -135 -242 -411h-171zM487 956v102q0 18 12 29q12 13 29 13h106q20 0 33 -18q7 -11 7 -23v-106q0 -20 -19 -34q-9 -6 -26 -6h-98q-31 0 -42 29
q-2 8 -2 14z" />
    <glyph glyph-name="uni062E.fina" unicode="&#x62e;" horiz-adv-x="1200" arabic-form="final" 
d="M1208 0q-272 0 -311 126q-8 25 -25 85l-351 -195q-241 -134 -241 -411h-172v120q1 1 5 39q31 249 259 374l555 303q-39 71 -120 89q-29 6 -159 10q-86 2 -321 3l-25 176h435q370 0 376 -371l-163 -93q11 -75 258 -75v-180zM505 956v102q0 18 12 29q12 13 29 13h106
q20 0 33 -18q7 -11 7 -23v-106q0 -20 -19 -34q-9 -6 -26 -6h-98q-31 0 -42 29q-2 8 -2 14z" />
    <glyph glyph-name="uni062E.init" unicode="&#x62e;" horiz-adv-x="1000" arabic-form="initial" 
d="M969 348l-412 -235q-138 -79 -304 -100q-68 -9 -323 -13v180h144q198 0 367 76q29 14 332 183q-29 67 -122 92q-24 6 -468 12l-25 176h444q365 0 367 -371zM300 956v102q0 18 12 29q12 13 29 13h106q20 0 33 -18q7 -11 7 -23v-106q0 -20 -19 -34q-9 -6 -26 -6h-98
q-31 0 -42 29q-2 8 -2 14z" />
    <glyph glyph-name="uni062E.medi" unicode="&#x62e;" horiz-adv-x="1000" arabic-form="medial" 
d="M1032 0q-249 0 -281 118q-6 21 -13 50l-10 43q-243 -147 -377 -181q-106 -26 -421 -30v180h144q192 0 367 76q50 22 332 183q-30 69 -122 92q-15 4 -110 7q-48 1 -358 5l-25 176h444q361 0 367 -374l-167 -90q0 -75 230 -75v-180zM300 956v102q0 18 12 29q12 13 29 13
h106q20 0 33 -18q7 -11 7 -23v-106q0 -20 -19 -34q-9 -6 -26 -6h-98q-31 0 -42 29q-2 8 -2 14z" />
    <glyph glyph-name="uni062F.isol" unicode="&#x62f;" horiz-adv-x="900" arabic-form="isolated" 
d="M399 868l406 -429q82 -87 82 -198q0 -113 -77 -179q-73 -62 -188 -62h-443q-30 0 -40 28q-2 7 -2 13v98q0 17 11 28q12 12 28 12l435 1q99 0 99 70q0 36 -28 65l-406 432q-20 21 -7 47q3 6 8 10l68 65q12 11 27 11q16 -1 27 -12z" />
    <glyph glyph-name="uni062F.fina" unicode="&#x62f;" horiz-adv-x="1051" arabic-form="final" 
d="M336 868l541 -573q67 -71 98 -89q45 -26 85 -26v-180h-34q-101 0 -225 124q-50 -72 -100.5 -98t-138.5 -26h-443q-30 0 -40 28q-2 7 -2 13v98q0 17 11 28q12 12 28 12l433 1q98 0 98 68q0 39 -26 67l-408 432q-20 21 -7 47q3 6 8 10l68 65q12 11 27 11q16 -1 27 -12z" />
    <glyph glyph-name="uni0630.isol" unicode="&#x630;" horiz-adv-x="1000" arabic-form="isolated" 
d="M459 868l406 -429q82 -87 82 -198q0 -113 -77 -179q-73 -62 -188 -62h-443q-30 0 -40 28q-2 7 -2 13v98q0 17 11 28q12 12 28 12l435 1q99 0 99 70q0 36 -28 65l-406 432q-20 21 -7 47q3 6 8 10l68 65q12 11 27 11q16 -1 27 -12zM147 926v102q0 18 12 29q12 13 29 13h106
q20 0 33 -18q7 -11 7 -23v-106q0 -20 -19 -34q-9 -6 -26 -6h-98q-31 0 -42 29q-2 8 -2 14z" />
    <glyph glyph-name="uni0630.fina" unicode="&#x630;" horiz-adv-x="1200" arabic-form="final" 
d="M486 868l541 -573q67 -71 98 -89q45 -26 85 -26v-180h-34q-101 0 -225 124q-50 -72 -100.5 -98t-138.5 -26h-443q-30 0 -40 28q-2 7 -2 13v98q0 17 11 28q12 12 28 12l433 1q98 0 98 68q0 39 -26 67l-408 432q-20 21 -7 47q3 6 8 10l68 65q12 11 27 11q16 -1 27 -12z
M177 926v102q0 18 12 29q12 13 29 13h106q20 0 33 -18q7 -11 7 -23v-106q0 -20 -19 -34q-9 -6 -26 -6h-98q-31 0 -42 29q-2 8 -2 14z" />
    <glyph glyph-name="uni0631.isol" unicode="&#x631;" horiz-adv-x="600" arabic-form="isolated" 
d="M418 -7h-2v567q0 17 11 28q12 12 28 12h104q19 0 31 -17q7 -11 7 -22v-576h-1q0 -105 -122 -254q-136 -126 -317 -126h-33q-30 0 -40 28q-2 7 -2 13v97q0 17 11 28t25 14h10q128 0 212 74q78 83 78 134z" />
    <glyph glyph-name="uni0631.fina" unicode="&#x631;" horiz-adv-x="753" arabic-form="final" 
d="M623 204q58 -24 131 -24v-180q-76 2 -131 48v-63h-1q0 -105 -122 -254q-136 -126 -317 -126h-33q-30 0 -40 28q-2 7 -2 13v97q0 17 11 28t25 14h10q128 0 212 74q78 83 78 134h-2v567q0 17 11 28q12 12 28 12h104q19 0 31 -17q7 -11 7 -22v-357z" />
    <glyph glyph-name="uni0632.isol" unicode="&#x632;" horiz-adv-x="600" arabic-form="isolated" 
d="M418 -7h-2v567q0 17 11 28q12 12 28 12h104q19 0 31 -17q7 -11 7 -22v-576h-1q0 -105 -122 -254q-136 -126 -317 -126h-33q-30 0 -40 28q-2 7 -2 13v97q0 17 11 28t25 14h10q128 0 212 74q78 83 78 134zM413 843v102q0 18 12 29q12 13 29 13h106q20 0 33 -18q7 -11 7 -23
v-106q0 -20 -19 -34q-9 -6 -26 -6h-98q-31 0 -42 29q-2 8 -2 14z" />
    <glyph glyph-name="uni0632.fina" unicode="&#x632;" horiz-adv-x="744" arabic-form="final" 
d="M625 204q58 -24 131 -24v-180q-76 2 -131 48v-63h-1q0 -105 -122 -254q-136 -126 -317 -126h-33q-30 0 -40 28q-2 7 -2 13v97q0 17 11 28t25 14h10q128 0 212 74q78 83 78 134h-2v567q0 17 11 28q12 12 28 12h104q19 0 31 -17q7 -11 7 -22v-357zM434 843v102q0 18 12 29
q12 13 29 13h106q20 0 33 -18q7 -11 7 -23v-106q0 -20 -19 -34q-9 -6 -26 -6h-98q-31 0 -42 29q-2 8 -2 14z" />
    <glyph glyph-name="uni0633.isol" unicode="&#x633;" horiz-adv-x="2000" arabic-form="isolated" 
d="M1064 268q9 -43 41 -73q43 -41 105 -41q127 0 127 112v301h1q2 13 11 22q12 12 28 12h102q19 0 31 -17q5 -9 7 -18v-266q0 -65 44 -105.5t109 -40.5q124 0 124 112v301q2 13 11 22q12 12 28 12h101q19 0 31 -17q5 -9 7 -17v-278q0 -108 -43 -190q-81 -115 -224 -115
q-141 0 -236 122q-96 -126 -225 -126q-97 0 -179 71v-99q0 -145 -99.5 -241t-245.5 -96h-319q-146 0 -245.5 96t-99.5 241l-1 288q0 11 7 22q12 17 31 17h105q16 0 28 -12q11 -11 11 -28v-279q0 -112 107 -148q35 -11 69 -12h295q34 1 69 12q107 36 107 148v601q0 17 11 28
q12 12 28 12h103q19 0 31 -17q7 -11 7 -22v-294z" />
    <glyph glyph-name="uni0633.fina" unicode="&#x633;" horiz-adv-x="2100" arabic-form="final" 
d="M1045 268q9 -43 41 -73q43 -41 105 -41q127 0 127 112v300h1q2 13 11 22q12 12 28 12h102q19 0 31 -17q5 -9 7 -18v-265q0 -65 44 -105.5t109 -40.5q124 0 124 112v300q2 13 11 22q12 12 28 12h101q19 0 31 -17q5 -9 7 -17v-277q0 -109 150 -109v-180h-4q-125 0 -189 99
q-81 -115 -224 -115q-141 0 -236 122q-96 -126 -225 -126q-97 0 -179 71v-99q0 -145 -99.5 -241t-245.5 -96h-319q-146 0 -245.5 96t-99.5 241l-1 288q0 11 7 22q12 17 31 17h105q16 0 28 -12q11 -11 11 -28v-279q0 -112 107 -148q35 -11 69 -12h295q34 1 69 12
q107 36 107 148v600q0 17 11 28q12 12 28 12h103q19 0 31 -17q7 -11 7 -22v-293z" />
    <glyph glyph-name="uni0633.init" unicode="&#x633;" horiz-adv-x="1400" arabic-form="initial" 
d="M1319 289q0 -109 -40 -190q-83 -117 -205 -117q-128 0 -249 122q-108 -122 -256 -122t-244 127q-69 -78 -202 -99q-63 -10 -133 -10v180h65q93 0 124 23q51 37 51 133l-1 225q0 17 11 28q12 12 28 12h98q19 0 31 -15q9 -13 9 -19v-269q0 -64 47 -105q44 -39 108 -39
q123 0 123 112v295q0 17 11 28q12 12 28 12h100q19 0 31 -17q5 -8 6 -16h1v-268q0 -64 45.5 -105t109.5 -41q125 0 125 112v301q2 13 11 22q12 12 28 12h101q19 0 31 -17q5 -9 7 -17v-278z" />
    <glyph glyph-name="uni0633.medi" unicode="&#x633;" horiz-adv-x="1451" arabic-form="medial" 
d="M1319 289q0 -109 140 -109v-180h1l-65 11q-73 13 -116 88q-83 -117 -205 -117q-128 0 -249 122q-108 -122 -256 -122t-244 127q-69 -78 -202 -99q-63 -10 -133 -10v180h65q93 0 124 23q51 37 51 133v225q0 17 11 28q12 12 28 12h97q19 0 31 -14q9 -12 9 -20v-269
q0 -64 47 -105q44 -39 108 -39q123 0 123 112v295q0 17 11 28q12 12 28 12h100q19 0 31 -17q5 -8 6 -16h1v-268q0 -64 45.5 -105t109.5 -41q125 0 125 112v301q2 13 11 22q12 12 28 12h101q19 0 31 -17q5 -9 7 -17v-278z" />
    <glyph glyph-name="uni0634.isol" unicode="&#x634;" horiz-adv-x="2000" arabic-form="isolated" 
d="M1064 268q9 -43 41 -73q43 -41 105 -41q127 0 127 112v301h1q2 13 11 22q12 12 28 12h102q19 0 31 -17q5 -9 7 -18v-266q0 -65 44 -105.5t109 -40.5q124 0 124 112v301q2 13 11 22q12 12 28 12h101q19 0 31 -17q5 -9 7 -17v-278q0 -108 -43 -190q-81 -115 -224 -115
q-141 0 -236 122q-96 -126 -225 -126q-97 0 -179 71v-99q0 -145 -99.5 -241t-245.5 -96h-319q-146 0 -245.5 96t-99.5 241l-1 288q0 11 7 22q12 17 31 17h105q16 0 28 -12q11 -11 11 -28v-279q0 -112 107 -148q35 -11 69 -12h295q34 1 69 12q107 36 107 148v601q0 17 11 28
q12 12 28 12h103q19 0 31 -17q7 -11 7 -22v-294zM1330 1102v102q0 18 12 29q12 13 29 13h106q20 0 33 -18q7 -11 7 -23v-106q0 -20 -19 -34q-9 -6 -26 -6h-98q-31 0 -42 29q-2 8 -2 14zM1180 843v101q0 17 12 29q12 13 29 13h406q20 0 33 -18q7 -12 7 -23v-105
q0 -20 -19 -34q-9 -6 -26 -6h-398q-31 0 -42 29q-2 7 -2 14z" />
    <glyph glyph-name="uni0634.fina" unicode="&#x634;" horiz-adv-x="2100" arabic-form="final" 
d="M1055 268q9 -43 41 -73q43 -41 105 -41q127 0 127 112v300h1q2 13 11 22q12 12 28 12h102q19 0 31 -17q5 -9 7 -18v-265q0 -65 44 -105.5t109 -40.5q124 0 124 112v300q2 13 11 22q12 12 28 12h101q19 0 31 -17q5 -9 7 -17v-277q0 -109 150 -109v-180h-4q-125 0 -189 99
q-81 -115 -224 -115q-141 0 -236 122q-96 -126 -225 -126q-97 0 -179 71v-99q0 -145 -99.5 -241t-245.5 -96h-319q-146 0 -245.5 96t-99.5 241l-1 288q0 11 7 22q12 17 31 17h105q16 0 28 -12q11 -11 11 -28v-279q0 -112 107 -148q35 -11 69 -12h295q34 1 69 12
q107 36 107 148v600q0 17 11 28q12 12 28 12h103q19 0 31 -17q7 -11 7 -22v-293zM1340 1102v102q0 18 12 29q12 13 29 13h106q20 0 33 -18q7 -11 7 -23v-106q0 -20 -19 -34q-9 -6 -26 -6h-98q-31 0 -42 29q-2 8 -2 14zM1190 843v101q0 17 12 29q12 13 29 13h406q20 0 33 -18
q7 -12 7 -23v-105q0 -20 -19 -34q-9 -6 -26 -6h-398q-31 0 -42 29q-2 7 -2 14z" />
    <glyph glyph-name="uni0634.init" unicode="&#x634;" horiz-adv-x="1400" arabic-form="initial" 
d="M1319 289q0 -109 -40 -190q-83 -117 -205 -117q-128 0 -249 122q-108 -122 -256 -122t-244 127q-69 -78 -202 -99q-63 -10 -133 -10v180h65q93 0 124 23q51 37 51 133l-1 225q0 17 11 28q12 12 28 12h98q19 0 31 -15q9 -13 9 -19v-269q0 -64 47 -105q44 -39 108 -39
q123 0 123 112v295q0 17 11 28q12 12 28 12h100q19 0 31 -17q5 -8 6 -16h1v-268q0 -64 45.5 -105t109.5 -41q125 0 125 112v301q2 13 11 22q12 12 28 12h101q19 0 31 -17q5 -9 7 -17v-278zM666 1102v102q0 18 12 29q12 13 29 13h106q20 0 33 -18q7 -11 7 -23v-106
q0 -20 -19 -34q-9 -6 -26 -6h-98q-31 0 -42 29q-2 8 -2 14zM516 843v101q0 17 12 29q12 13 29 13h406q20 0 33 -18q7 -12 7 -23v-105q0 -20 -19 -34q-9 -6 -26 -6h-398q-31 0 -42 29q-2 7 -2 14z" />
    <glyph glyph-name="uni0634.medi" unicode="&#x634;" horiz-adv-x="1451" arabic-form="medial" 
d="M1319 289q0 -109 140 -109v-180h1l-65 11q-73 13 -116 88q-83 -117 -205 -117q-128 0 -249 122q-108 -122 -256 -122t-244 127q-69 -78 -202 -99q-63 -10 -133 -10v180h65q93 0 124 23q51 37 51 133v225q0 17 11 28q12 12 28 12h97q19 0 31 -14q9 -12 9 -20v-269
q0 -64 47 -105q44 -39 108 -39q123 0 123 112v295q0 17 11 28q12 12 28 12h100q19 0 31 -17q5 -8 6 -16h1v-268q0 -64 45.5 -105t109.5 -41q125 0 125 112v301q2 13 11 22q12 12 28 12h101q19 0 31 -17q5 -9 7 -17v-278zM672 1102v102q0 18 12 29q12 13 29 13h106
q20 0 33 -18q7 -11 7 -23v-106q0 -20 -19 -34q-9 -6 -26 -6h-98q-31 0 -42 29q-2 8 -2 14zM522 843v101q0 17 12 29q12 13 29 13h406q20 0 33 -18q7 -12 7 -23v-105q0 -20 -19 -34q-9 -6 -26 -6h-398q-31 0 -42 29q-2 7 -2 14z" />
    <glyph glyph-name="uni0635.isol" unicode="&#x635;" horiz-adv-x="2100" arabic-form="isolated" 
d="M1088 289q7 -109 131 -109q4 8 9 15v216q0 65 33 112q9 19 40 48q26 21 40 30q81 47 173 47h279q89 0 168 -45q16 -8 46 -33q72 -68 72 -152v-184q0 -89 -77 -158q-21 -17 -37 -27q-75 -43 -157 -47q-23 -2 -47 -2h-528q-113 0 -144 83v-131q0 -145 -99.5 -241
t-245.5 -96h-319q-146 0 -245.5 96t-99.5 241l-1 288q0 11 7 22q12 17 31 17h105q16 0 28 -12q11 -11 11 -28v-279q0 -112 107 -148q35 -11 69 -12h295q34 1 69 12q107 36 107 148v565q0 17 11 28q12 12 28 12h103q19 0 31 -17q7 -11 7 -22v-237z" />
    <glyph glyph-name="uni0635.fina" unicode="&#x635;" horiz-adv-x="2100" arabic-form="final" 
d="M1680 180h442v-180h-442v180zM1065 289q7 -109 121 -109q4 8 9 15v216q0 65 33 112q9 19 40 48q26 21 40 30q81 47 173 47h289q89 0 168 -45q16 -8 46 -33q72 -68 72 -152v-184q0 -89 -77 -158q-21 -17 -37 -27q-75 -43 -157 -47q-23 -2 -47 -2h-538q-103 0 -134 83v-131
q0 -145 -99.5 -241t-245.5 -96h-319q-146 0 -245.5 96t-99.5 241l-1 288q0 11 7 22q12 17 31 17h105q16 0 28 -12q11 -11 11 -28v-279q0 -112 107 -148q35 -11 69 -12h295q34 1 69 12q107 36 107 148v565q0 17 11 28q12 12 28 12h103q19 0 31 -17q7 -11 7 -22v-237z" />
    <glyph glyph-name="uni0635.init" unicode="&#x635;" horiz-adv-x="1400" arabic-form="initial" 
d="M1292 76q-22 -30 -52 -46q-55 -30 -186 -30h-536q-140 0 -219 106q-105 -106 -243 -106h-86v180h110q126 0 126 131v109q0 17 11 28q12 12 28 12h100q19 0 31 -17q5 -9 7 -17h1v-92q0 -154 135 -154v231q0 65 33 112q9 19 40 48q26 21 40 30q81 47 173 47h279
q89 0 168 -45q16 -8 46 -33q72 -68 72 -152v-184q0 -89 -77 -158h-1z" />
    <glyph glyph-name="uni0635.medi" unicode="&#x635;" horiz-adv-x="1400" arabic-form="medial" 
d="M1342 180h77v-180h-911q-140 0 -219 106q-105 -106 -243 -106h-86v180h100q126 0 126 131v108q0 17 11 28q12 12 28 12h100q19 0 31 -17q5 -9 7 -17h1v-91q0 -154 135 -154v231q0 65 33 112q9 19 40 48q26 21 40 30q81 47 173 47h279q89 0 168 -45q16 -8 46 -33
q72 -68 72 -152v-184q0 -28 -8 -54z" />
    <glyph glyph-name="uni0636.isol" unicode="&#x636;" horiz-adv-x="2100" arabic-form="isolated" 
d="M1068 289q7 -109 131 -109q4 8 9 15v216q0 65 33 112q9 19 40 48q26 21 40 30q81 47 173 47h279q89 0 168 -45q16 -8 46 -33q72 -68 72 -152v-184q0 -89 -77 -158q-21 -17 -37 -27q-75 -43 -157 -47q-23 -2 -47 -2h-528q-113 0 -144 83v-131q0 -145 -99.5 -241
t-245.5 -96h-319q-146 0 -245.5 96t-99.5 241l-1 288q0 11 7 22q12 17 31 17h105q16 0 28 -12q11 -11 11 -28v-279q0 -112 107 -148q35 -11 69 -12h295q34 1 69 12q107 36 107 148v565q0 17 11 28q12 12 28 12h103q19 0 31 -17q7 -11 7 -22v-237zM1533 843v102q0 18 12 29
q12 13 29 13h106q20 0 33 -18q7 -11 7 -23v-106q0 -20 -19 -34q-9 -6 -26 -6h-98q-31 0 -42 29q-2 8 -2 14z" />
    <glyph glyph-name="uni0636.fina" unicode="&#x636;" horiz-adv-x="2100" arabic-form="final" 
d="M1680 180h442v-180h-442v180zM1065 289q7 -109 121 -109q4 8 9 15v216q0 65 33 112q9 19 40 48q26 21 40 30q81 47 173 47h289q89 0 168 -45q16 -8 46 -33q72 -68 72 -152v-184q0 -89 -77 -158q-21 -17 -37 -27q-75 -43 -157 -47q-23 -2 -47 -2h-538q-103 0 -134 83v-131
q0 -145 -99.5 -241t-245.5 -96h-319q-146 0 -245.5 96t-99.5 241l-1 288q0 11 7 22q12 17 31 17h105q16 0 28 -12q11 -11 11 -28v-279q0 -112 107 -148q35 -11 69 -12h295q34 1 69 12q107 36 107 148v565q0 17 11 28q12 12 28 12h103q19 0 31 -17q7 -11 7 -22v-237z
M1505 843v102q0 18 12 29q12 13 29 13h106q20 0 33 -18q7 -11 7 -23v-106q0 -20 -19 -34q-9 -6 -26 -6h-98q-31 0 -42 29q-2 8 -2 14z" />
    <glyph glyph-name="uni0636.init" unicode="&#x636;" horiz-adv-x="1400" arabic-form="initial" 
d="M1282 76q-22 -30 -52 -46q-55 -30 -186 -30h-536q-140 0 -219 106q-105 -106 -243 -106h-86v180h110q126 0 126 131v109q0 17 11 28q12 12 28 12h100q19 0 31 -17q5 -9 7 -17h1v-92q0 -154 135 -154v231q0 65 33 112q9 19 40 48q26 21 40 30q81 47 173 47h279
q89 0 168 -45q16 -8 46 -33q72 -68 72 -152v-184q0 -89 -77 -158h-1zM830 843v102q0 18 12 29q12 13 29 13h106q20 0 33 -18q7 -11 7 -23v-106q0 -20 -19 -34q-9 -6 -26 -6h-98q-31 0 -42 29q-2 8 -2 14z" />
    <glyph glyph-name="uni0636.medi" unicode="&#x636;" horiz-adv-x="1400" arabic-form="medial" 
d="M1342 180h77v-180h-911q-140 0 -219 106q-105 -106 -243 -106h-86v180h100q126 0 126 131v108q0 17 11 28q12 12 28 12h100q19 0 31 -17q5 -9 7 -17h1v-91q0 -154 135 -154v231q0 65 33 112q9 19 40 48q26 21 40 30q81 47 173 47h279q89 0 168 -45q16 -8 46 -33
q72 -68 72 -152v-184q0 -28 -8 -54zM820 843v102q0 18 12 29q12 13 29 13h106q20 0 33 -18q7 -11 7 -23v-106q0 -20 -19 -34q-9 -6 -26 -6h-98q-31 0 -42 29q-2 8 -2 14z" />
    <glyph glyph-name="uni0637.isol" unicode="&#x637;" horiz-adv-x="1100" arabic-form="isolated" 
d="M153 0v2h-24q-30 0 -40 28q-2 7 -2 13v97q0 17 11 28q9 9 19 11v1h131v934q0 17 11 28q12 12 28 12h99q19 0 31 -17q7 -11 7 -22v-596l2 4q7 18 32 48q21 22 32 30q65 48 139 48h192q72 0 136 -45q12 -8 37 -34q58 -69 58 -154v-182q0 -90 -62 -159q-17 -17 -30 -27
q-66 -48 -138 -48h-669z" />
    <glyph glyph-name="uni0637.fina" unicode="&#x637;" horiz-adv-x="1100" arabic-form="final" 
d="M1040 180h59v-180h-943v2h-20q-30 0 -40 28q-2 7 -2 13v97q0 17 11 28q8 8 17 11v1h130l-1 934q0 17 11 28q12 12 28 12h100q19 0 31 -17q7 -11 7 -22v-582q9 16 28 39q21 22 32 30q65 48 139 48h190q71 0 134 -45q13 -8 37 -34q58 -68 58 -152v-27q1 -9 1 -18
q0 -23 -1 -45v-94q0 -29 -6 -55z" />
    <glyph glyph-name="uni0637.init" unicode="&#x637;" horiz-adv-x="951" arabic-form="initial" 
d="M642 3q-22 -3 -47 -3h-605v180h94v918h1v16q0 17 11 28q12 12 28 12h101q19 0 31 -17q7 -11 7 -22v-17h1v-569q9 17 30 43q21 22 32 30q65 48 139 48h190q71 0 134 -45q13 -8 37 -34q58 -68 58 -152v-184q0 -89 -62 -158q-17 -17 -30 -27q-64 -47 -136 -47h-14z" />
    <glyph glyph-name="uni0637.medi" unicode="&#x637;" horiz-adv-x="900" arabic-form="medial" 
d="M853 180h54v-180h-937l1 180h101v932q0 17 11 28q12 12 28 12h98q19 0 31 -17q7 -11 7 -22v-570q8 13 22 29q21 22 32 30q65 48 139 48h190q71 0 134 -45q13 -8 37 -34q58 -68 58 -152v-30q3 -7 3 -13q0 -40 -3 -75v-66q0 -29 -6 -55z" />
    <glyph glyph-name="uni0638.isol" unicode="&#x638;" horiz-adv-x="1100" arabic-form="isolated" 
d="M123 0v2h-24q-30 0 -40 28q-2 7 -2 13v97q0 17 11 28q9 9 19 11v1h131v934q0 17 11 28q12 12 28 12h99q19 0 31 -17q7 -11 7 -22v-596l2 4q7 18 32 48q21 22 32 30q65 48 139 48h192q72 0 136 -45q12 -8 37 -34q58 -69 58 -154v-182q0 -90 -62 -159q-17 -17 -30 -27
q-66 -48 -138 -48h-669zM546 1010v102q0 18 12 29q12 13 29 13h106q20 0 33 -18q7 -11 7 -23v-106q0 -20 -19 -34q-9 -6 -26 -6h-98q-31 0 -42 29q-2 8 -2 14z" />
    <glyph glyph-name="uni0638.fina" unicode="&#x638;" horiz-adv-x="1100" arabic-form="final" 
d="M1040 180h59v-180h-943v2h-20q-30 0 -40 28q-2 7 -2 13v97q0 17 11 28q8 8 17 11v1h130l-1 934q0 17 11 28q12 12 28 12h100q19 0 31 -17q7 -11 7 -22v-582q9 16 28 39q21 22 32 30q65 48 139 48h190q71 0 134 -45q13 -8 37 -34q58 -68 58 -152v-27q1 -9 1 -18
q0 -23 -1 -45v-94q0 -29 -6 -55zM603 1010v102q0 18 12 29q12 13 29 13h106q20 0 33 -18q7 -11 7 -23v-106q0 -20 -19 -34q-9 -6 -26 -6h-98q-31 0 -42 29q-2 8 -2 14z" />
    <glyph glyph-name="uni0638.init" unicode="&#x638;" horiz-adv-x="951" arabic-form="initial" 
d="M642 3q-22 -3 -47 -3h-605v180h94v918h1v16q0 17 11 28q12 12 28 12h101q19 0 31 -17q7 -11 7 -22v-17h1v-569q9 17 30 43q21 22 32 30q65 48 139 48h190q71 0 134 -45q13 -8 37 -34q58 -68 58 -152v-184q0 -89 -62 -158q-17 -17 -30 -27q-64 -47 -136 -47h-14zM444 1010
v102q0 18 12 29q12 13 29 13h106q20 0 33 -18q7 -11 7 -23v-106q0 -20 -19 -34q-9 -6 -26 -6h-98q-31 0 -42 29q-2 8 -2 14z" />
    <glyph glyph-name="uni0638.medi" unicode="&#x638;" horiz-adv-x="900" arabic-form="medial" 
d="M853 180h54v-180h-937l1 180h101v932q0 17 11 28q12 12 28 12h98q19 0 31 -17q7 -11 7 -22v-570q8 13 22 29q21 22 32 30q65 48 139 48h190q71 0 134 -45q13 -8 37 -34q58 -68 58 -152v-30q3 -7 3 -13q0 -40 -3 -75v-66q0 -29 -6 -55zM445 1008v102q0 18 12 29
q12 13 29 13h106q20 0 33 -18q7 -11 7 -23v-106q0 -20 -19 -34q-9 -6 -26 -6h-98q-31 0 -42 29q-2 8 -2 14z" />
    <glyph glyph-name="uni0639.isol" unicode="&#x639;" horiz-adv-x="1100" arabic-form="isolated" 
d="M84 -395q-5 39 -5 80q0 412 379 509q-19 45 -19 111v113q0 85 57 152q25 26 37 34q63 46 135 46h190q74 0 139 -49q11 -8 32 -29q11 -14 19 -25q18 -15 12 -45t-42 -69l-38 -35l-17 4l-56 43q-56 40 -147 40q-44 0 -75 -16q-69 -36 -69 -122q0 -38 34 -95q40 -70 113 -70
h237q0 -1 -1 -2q47 -1 59 -18q7 -11 7 -22v-101q0 -19 -18 -32q-4 -2 -9 -4l1 -3h-525q-122 0 -191 -101q-61 -89 -61 -217q0 -40 6 -77h-184z" />
    <glyph glyph-name="uni0639.fina" unicode="&#x639;" horiz-adv-x="1148" arabic-form="final" 
d="M63 -395q-7 44 -7 92q0 357 472 559l-239 235q58 104 121 228h384q185 0 237 -131q17 -41 17 -68q0 -111 -64 -186q-47 -56 -165 -120q80 -34 340 -34v-180q-184 0 -266 15q-152 27 -233 118q-432 -183 -432 -456q0 -37 9 -72h-174z" />
    <glyph glyph-name="uni0639.init" unicode="&#x639;" horiz-adv-x="700" arabic-form="initial" 
d="M264 469q-69 -36 -69 -122q0 -38 34 -95q40 -70 113 -70h237q0 -1 -1 -2q47 -1 59 -18q7 -11 7 -22v-101q0 -19 -18 -32q-4 -2 -9 -4l1 -3h-638v180h75q-37 57 -37 125v113q0 85 57 152q25 26 37 34q63 46 135 46h190q74 0 139 -49q11 -8 32 -29q11 -14 19 -25
q18 -15 12 -45t-42 -69l-38 -35l-17 4l-56 43q-56 40 -147 40q-44 0 -75 -16z" />
    <glyph glyph-name="uni0639.medi" unicode="&#x639;" horiz-adv-x="800" arabic-form="medial" 
d="M823 0q-128 0 -195 18q-92 23 -204 113q-113 -93 -225 -120q-26 -6 -219 -11v180q231 0 296 65l-250 246q58 104 121 228h386q185 0 235 -130q16 -43 16 -69q0 -110 -61 -181q-39 -45 -155 -118q107 -41 255 -41v-180z" />
    <glyph glyph-name="uni063A.isol" unicode="&#x63a;" horiz-adv-x="1100" arabic-form="isolated" 
d="M75 -395q-5 39 -5 80q0 412 379 509q-19 45 -19 111v113q0 85 57 152q25 26 37 34q63 46 135 46h190q74 0 139 -49q11 -8 32 -29q11 -14 19 -25q18 -15 12 -45t-42 -69l-38 -35l-17 4l-56 43q-56 40 -147 40q-44 0 -75 -16q-69 -36 -69 -122q0 -38 34 -95q40 -70 113 -70
h237q0 -1 -1 -2q47 -1 59 -18q7 -11 7 -22v-101q0 -19 -18 -32q-4 -2 -9 -4l1 -3h-525q-122 0 -191 -101q-61 -89 -61 -217q0 -40 6 -77h-184zM671 843v102q0 18 12 29q12 13 29 13h106q20 0 33 -18q7 -11 7 -23v-106q0 -20 -19 -34q-9 -6 -26 -6h-98q-31 0 -42 29
q-2 8 -2 14z" />
    <glyph glyph-name="uni063A.fina" unicode="&#x63a;" horiz-adv-x="1200" arabic-form="final" 
d="M109 -395q-7 44 -7 92q0 357 472 559l-239 235q58 104 121 228h384q185 0 237 -131q17 -41 17 -68q0 -111 -64 -186q-47 -56 -165 -120q80 -34 340 -34v-180q-184 0 -266 15q-152 27 -233 118q-432 -183 -432 -456q0 -37 9 -72h-174zM633 843v102q0 18 12 29q12 13 29 13
h106q20 0 33 -18q7 -11 7 -23v-106q0 -20 -19 -34q-9 -6 -26 -6h-98q-31 0 -42 29q-2 8 -2 14z" />
    <glyph glyph-name="uni063A.init" unicode="&#x63a;" horiz-adv-x="700" arabic-form="initial" 
d="M254 469q-69 -36 -69 -122q0 -38 34 -95q40 -70 113 -70h237q0 -1 -1 -2q47 -1 59 -18q7 -11 7 -22v-101q0 -19 -18 -32q-4 -2 -9 -4l1 -3h-638v180h75q-37 57 -37 125v113q0 85 57 152q25 26 37 34q63 46 135 46h190q74 0 139 -49q11 -8 32 -29q11 -14 19 -25
q18 -15 12 -45t-42 -69l-38 -35l-17 4l-56 43q-56 40 -147 40q-44 0 -75 -16zM233 843v102q0 18 12 29q12 13 29 13h106q20 0 33 -18q7 -11 7 -23v-106q0 -20 -19 -34q-9 -6 -26 -6h-98q-31 0 -42 29q-2 8 -2 14z" />
    <glyph glyph-name="uni063A.medi" unicode="&#x63a;" horiz-adv-x="800" arabic-form="medial" 
d="M813 0q-128 0 -195 18q-92 23 -204 113q-113 -93 -225 -120q-26 -6 -219 -11v180q231 0 296 65l-250 246q58 104 121 228h386q185 0 235 -130q16 -43 16 -69q0 -110 -61 -181q-39 -45 -155 -118q107 -41 255 -41v-180zM298 844v102q0 18 12 29q12 13 29 13h106
q20 0 33 -18q7 -11 7 -23v-106q0 -20 -19 -34q-9 -6 -26 -6h-98q-31 0 -42 29q-2 8 -2 14z" />
    <glyph glyph-name="uni0641.isol" unicode="&#x641;" horiz-adv-x="1700" arabic-form="isolated" 
d="M1383 180q82 0 103 31q10 15 24 53h-253q-72 0 -137 47q-13 11 -29 27q-62 69 -62 158v184q0 85 57 152q25 26 37 34q63 46 135 46h190q74 0 139 -49q11 -8 32 -29q24 -30 32 -48q26 -47 26 -113v-156q2 -19 3 -38q3 -145 3 -214q0 -79 -73 -169q-79 -96 -205 -96h-1297
q-30 0 -40 28q-2 7 -2 13v98q0 17 11 29q12 12 28 12h1278zM1243 1126v102q0 18 12 29q12 13 29 13h106q20 0 33 -18q7 -11 7 -23v-106q0 -20 -19 -34q-9 -6 -26 -6h-98q-31 0 -42 29q-2 8 -2 14z" />
    <glyph glyph-name="uni0641.fina" unicode="&#x641;" horiz-adv-x="1700" arabic-form="final" 
d="M1042 180q-36 56 -36 124v184q0 85 57 152q25 26 37 34q63 46 135 46h190q74 0 139 -49q11 -8 32 -29q24 -30 32 -48q26 -47 26 -113v-249q0 -28 -7 -52h63v-180q-274 0 -348 40q-25 -37 -342 -37q-20 -1 -80 -1q-7 -2 -16 -2h-756q-30 0 -40 28q-2 7 -2 13v98
q0 17 11 29q12 12 28 12h877zM1230 843v102q0 18 12 29q12 13 29 13h106q20 0 33 -18q7 -11 7 -23v-106q0 -20 -19 -34q-9 -6 -26 -6h-98q-31 0 -42 29q-2 8 -2 14z" />
    <glyph glyph-name="uni0641.init" unicode="&#x641;" horiz-adv-x="700" arabic-form="initial" 
d="M68 366q-36 57 -36 125v184q0 85 57 152q25 26 37 34q63 46 135 46h190q74 0 139 -49q11 -8 32 -29q24 -30 32 -48q26 -47 26 -113l11 -434q6 -66 -85 -152q-89 -82 -206 -82h-440v180h442q99 0 99 74q-72 1 -154 5h-87q-35 0 -69 11q-4 1 -7 1q-78 29 -116 95zM253 1043
v102q0 18 12 29q12 13 29 13h106q20 0 33 -18q7 -11 7 -23v-106q0 -20 -19 -34q-9 -6 -26 -6h-98q-31 0 -42 29q-2 8 -2 14z" />
    <glyph glyph-name="uni0641.medi" unicode="&#x641;" horiz-adv-x="750" arabic-form="medial" 
d="M697 180h80v-180q-20 4 -106 5l-88 3q-93 1 -171 40q-83 -48 -432 -48v180h111q-35 55 -35 122v184q0 85 57 152q25 26 37 34q63 46 135 46h75q15 1 31 1q14 0 27 -1h57q74 0 139 -49q11 -8 32 -29q24 -30 32 -48q26 -47 26 -113v-249q0 -27 -7 -50zM275 843v102
q0 18 12 29q12 13 29 13h106q20 0 33 -18q7 -11 7 -23v-106q0 -20 -19 -34q-9 -6 -26 -6h-98q-31 0 -42 29q-2 8 -2 14z" />
    <glyph glyph-name="uni0642.isol" unicode="&#x642;" horiz-adv-x="1200" arabic-form="isolated" 
d="M994 -4l-11 3q-65 0 -117 2h-159l1 3q-46 14 -81 37q-14 7 -26 21l-13 13q-62 69 -62 158v184q0 85 57 152q25 26 37 34q19 14 38 23q47 24 99 24h189q74 0 139 -49q11 -8 32 -29q24 -30 32 -48q26 -47 26 -113l-1 -151l1 -308q0 -145 -99.5 -241t-245.5 -96h-419
q-146 0 -245.5 96t-99.5 241l-1 288q0 11 7 22q12 17 31 17h105q16 0 28 -12q11 -11 11 -28v-279q0 -112 107 -148q35 -11 69 -12h395q34 1 69 12q107 36 107 148v36zM618 843v101q0 17 12 29q12 13 29 13h406q20 0 33 -18q7 -12 7 -23v-105q0 -20 -19 -34q-9 -6 -26 -6
h-398q-31 0 -42 29q-2 7 -2 14z" />
    <glyph glyph-name="uni0642.fina" unicode="&#x642;" horiz-adv-x="1200" arabic-form="final" 
d="M1141 180h61v-180h-60v-48q0 -145 -99.5 -241t-245.5 -96h-419q-146 0 -245.5 96t-99.5 241l-1 288q0 11 7 22q12 17 31 17h105q16 0 28 -12q11 -11 11 -28v-279q0 -112 107 -148q35 -11 69 -12h395q34 1 69 12q107 36 107 148v36l-11 3q-65 0 -117 2h-159l1 3
q-46 14 -81 37q-14 7 -26 21l-13 13q-62 69 -62 158v184q0 85 57 152q25 26 37 34q19 14 38 23q47 24 99 24h189q74 0 139 -49q11 -8 32 -29q24 -30 32 -48q26 -47 26 -113l-1 -151v-80zM573 843v101q0 17 12 29q12 13 29 13h406q20 0 33 -18q7 -12 7 -23v-105
q0 -20 -19 -34q-9 -6 -26 -6h-398q-31 0 -42 29q-2 7 -2 14z" />
    <glyph glyph-name="uni0642.init" unicode="&#x642;" horiz-adv-x="750" arabic-form="initial" 
d="M68 366q-36 57 -36 125v184q0 85 57 152q25 26 37 34q63 46 135 46h190q74 0 139 -49q11 -8 32 -29q24 -30 32 -48q26 -47 26 -113l11 -434q6 -66 -85 -152q-89 -82 -206 -82h-440v180h442q99 0 99 74q-72 1 -154 5h-87q-35 0 -69 11q-4 1 -7 1q-78 29 -116 95zM130 1063
v101q0 17 12 29q12 13 29 13h406q20 0 33 -18q7 -12 7 -23v-105q0 -20 -19 -34q-9 -6 -26 -6h-398q-31 0 -42 29q-2 7 -2 14z" />
    <glyph glyph-name="uni0642.medi" unicode="&#x642;" horiz-adv-x="750" arabic-form="medial" 
d="M697 180h80v-180q-20 4 -106 5l-88 3q-93 1 -171 40q-83 -48 -432 -48v180h111q-35 55 -35 122v184q0 85 57 152q25 26 37 34q63 46 135 46h75q15 1 31 1q14 0 27 -1h57q74 0 139 -49q11 -8 32 -29q24 -30 32 -48q26 -47 26 -113v-249q0 -27 -7 -50zM135 843v101
q0 17 12 29q12 13 29 13h406q20 0 33 -18q7 -12 7 -23v-105q0 -20 -19 -34q-9 -6 -26 -6h-398q-31 0 -42 29q-2 7 -2 14z" />
    <glyph glyph-name="uni0643.isol" unicode="&#x643;" horiz-adv-x="1500" arabic-form="isolated" 
d="M822 559q0 3 -14.5 5.5t-33.5 5.5q-15 2 -31 4.5t-29.5 6t-22.5 8.5t-9 11q0 30 14 55t38 46.5t56.5 39.5t70.5 33l16 -60q-14 -5 -29 -9.5t-29 -9.5q-20 -6 -33 -10t-13 -6q0 -12 20.5 -21t57.5 -14q80 -9 80 -46q0 -15 -14 -34.5t-39 -36.5t-58 -29t-71 -12
q-31 0 -67.5 8.5t-84.5 21.5v2q23 3 43.5 5.5t38.5 4.5q80 10 111.5 15t31.5 16zM1429 335q0 -145 -99.5 -241t-245.5 -96h-619q-146 0 -245.5 96t-99.5 241v188q0 11 7 22q12 17 31 17h104q16 0 28 -12q11 -11 11 -28v-179q0 -112 107 -148q35 -11 69 -12h595q34 1 69 12
q107 36 107 148v762q0 17 11 28q12 12 28 12h104q19 0 31 -17q7 -11 7 -22v-771z" />
    <glyph glyph-name="uni0643.fina" unicode="&#x643;" horiz-adv-x="1546" arabic-form="final" 
d="M802 559q0 5 -14.5 7t-34.5 4q-15 2 -31 4t-29.5 5.5t-22 8.5t-8.5 12q0 30 14 55t38 46.5t56.5 39.5t70.5 33l16 -60q-14 -5 -29 -9.5t-29 -9.5q-20 -6 -33 -10t-13 -6q0 -12 20.5 -21t57.5 -14q80 -9 80 -46q0 -15 -14 -34.5t-39 -36.5t-58 -29t-71 -12
q-31 0 -67.5 8.5t-84.5 21.5v2q23 3 43.5 5.5t38.5 4.5q80 10 111.5 15t31.5 16zM1429 316q0 -48 15 -77.5t42 -41.5q30 -11 68 -18v-179h-54q-75 0 -177 88q-98 -90 -239 -90h-619q-146 0 -245.5 96t-99.5 241v188q0 11 7 22q12 17 31 17h104q16 0 28 -12q11 -11 11 -28
v-179q0 -112 107 -148q35 -11 69 -12h595q34 1 69 12q107 36 107 148v762q0 17 11 28q12 12 28 12h104q19 0 31 -17q7 -11 7 -22v-790z" />
    <glyph glyph-name="uni0643.init" unicode="&#x643;" horiz-adv-x="800" arabic-form="initial" 
d="M33 1019l660 240l27 -180l-466 -175l369 -413q39 -44 100 -142q34 -55 34 -104q0 -245 -275 -245h-512v180h512q71 0 71 84q0 39 -23 62l-467 492q-17 2 -32 13q-4 3 -12 11q-18 21 -18 48v59q0 28 32 70z" />
    <glyph glyph-name="uni0643.medi" unicode="&#x643;" horiz-adv-x="1000" arabic-form="medial" 
d="M56 1020l662 239l25 -180l-469 -175l497 -550q84 -94 132 -125q71 -46 114 -49v-180q-170 0 -265 131q-53 -131 -248 -131h-534v180h537q71 0 71 93q0 32 -20 53l-468 491q-21 2 -39 15q-4 3 -10 9q-8 10 -11 15q-8 16 -8 36v80q0 21 13 35q6 6 9 7q6 4 12 6z" />
    <glyph glyph-name="uni0644.isol" unicode="&#x644;" horiz-adv-x="1100" arabic-form="isolated" 
d="M1066 -48q0 -145 -99.5 -241t-245.5 -96h-319q-146 0 -245.5 96t-99.5 241v288q0 11 7 22q12 17 31 17h104q16 0 28 -12q11 -11 11 -28v-279q0 -112 107 -148q35 -11 69 -12h295q34 1 69 12q107 36 107 148v1145q0 17 11 28q12 12 28 12h104q19 0 31 -17q7 -11 7 -22
v-1154z" />
    <glyph glyph-name="uni0644.fina" unicode="&#x644;" horiz-adv-x="1200" arabic-form="final" 
d="M1078 264q20 -82 130 -84v-180q-74 0 -130 62v-110q0 -145 -99.5 -241t-245.5 -96h-319q-146 0 -245.5 96t-99.5 241l-1 288q0 11 7 22q12 17 31 17h105q16 0 28 -12q11 -11 11 -28v-279q0 -112 107 -148q35 -11 69 -12h295q34 1 69 12q107 36 107 148v1150q0 17 11 28
q12 12 28 12h103q19 0 31 -17q7 -11 7 -22z" />
    <glyph glyph-name="uni0644.init" unicode="&#x644;" horiz-adv-x="400" arabic-form="initial" 
d="M334 275q0 -130 -77.5 -202.5t-209.5 -72.5h-67v180l52 -1q87 6 110 44q15 23 15 131l-1 761q0 17 11 28q12 12 28 12h101q19 0 31 -17q7 -11 7 -22v-841z" />
    <glyph glyph-name="uni0644.medi" unicode="&#x644;" horiz-adv-x="500" arabic-form="medial" 
d="M351 1109h1v-791q0 -98 58 -122q28 -11 99 -16v-180h-54q-105 0 -191 70q-65 -54 -117 -64q-34 -6 -167 -6v180h59q86 -2 114 45q19 32 19 129v755h1v6q0 17 11 28q12 12 28 12h101q19 0 31 -17q7 -11 7 -22v-7z" />
    <glyph glyph-name="uni0645.isol" unicode="&#x645;" horiz-adv-x="1100" arabic-form="isolated" 
d="M438 544q-17 1 -21 1q-70 0 -117.5 -55t-47.5 -125v-717q0 -19 -18 -32q-9 -6 -25 -6h-92q-30 0 -40 28q-2 7 -2 13v692q0 173 91 272q94 104 266 104h425q72 0 137 -52q13 -12 29 -30q62 -76 62 -175v-205q0 -94 -57 -168q-25 -29 -37 -38q-63 -51 -135 -51h-189
q-74 0 -139 54q-11 9 -32 32q-24 34 -32 53q-26 52 -26 125v280z" />
    <glyph glyph-name="uni0645.fina" unicode="&#x645;" horiz-adv-x="1200" arabic-form="final" 
d="M428 543q-80 -1 -136 -48q-61 -50 -61 -130v-715q0 -19 -18 -32q-9 -6 -25 -6h-91q-30 0 -40 28q-2 7 -2 13v690q0 175 88 273q93 103 266 103h438q72 0 137 -52q13 -12 29 -30q62 -77 62 -175v-165q38 -116 137 -117v-180q-62 0 -108 20q-43 18 -85 70q0 -1 -1 -2
q-25 -29 -37 -38q-63 -51 -135 -51h-189q-74 0 -139 54q-11 9 -32 33q-24 33 -32 53q-26 52 -26 125v279z" />
    <glyph glyph-name="uni0645.init" unicode="&#x645;" horiz-adv-x="800" arabic-form="initial" 
d="M652 85q-83 -85 -234 -85q-115 0 -203 43q-87 -38 -225 -43v180q62 0 94 26q-1 13 -1 26v180q0 66 26 113q8 18 32 48q21 21 32 29q65 49 139 49h189q72 0 135 -46q12 -8 37 -34q57 -67 57 -152v-185q0 -64 -78 -149z" />
    <glyph glyph-name="uni0645.medi" unicode="&#x645;" horiz-adv-x="848" arabic-form="medial" 
d="M730 243q12 -38 42 -50q20 -9 77 -13v-180q-59 0 -99 16q-49 21 -69 30.5t-66 -18.5t-196 -28q-133 0 -245 64q-60 -55 -183 -64l-1 180q57 0 84 30q7 7 10 42l-1 51v114q0 85 57 152q25 26 37 34q63 46 135 46h189q74 0 139 -49q11 -8 32 -29q24 -30 32 -48
q26 -47 26 -113v-167z" />
    <glyph glyph-name="uni0646.isol" unicode="&#x646;" horiz-adv-x="1052" arabic-form="isolated" 
d="M1033 -63q0 -145 -99.5 -241t-245.5 -96h-319q-146 0 -245.5 96t-99.5 241l-1 304q0 11 7 22q12 17 31 17h105q16 0 28 -12q11 -11 11 -28v-295q0 -112 107 -148q35 -11 69 -12h295q34 1 69 12q107 36 107 148v580q0 17 11 28q12 12 28 12h103q19 0 31 -17q7 -11 7 -22z
M435 232v102q0 18 12 29q12 13 29 13h106q20 0 33 -18q7 -11 7 -23v-106q0 -20 -19 -34q-9 -6 -26 -6h-98q-31 0 -42 29q-2 8 -2 14z" />
    <glyph glyph-name="uni0646.fina" unicode="&#x646;" horiz-adv-x="1200" arabic-form="final" 
d="M1059 269q21 -87 147 -89v-180q-95 0 -146 52v-115q0 -145 -99.5 -241t-245.5 -96h-319q-146 0 -245.5 96t-99.5 241l-1 304q0 11 7 22q12 17 31 17h105q16 0 28 -12q11 -11 11 -28v-295q0 -112 107 -148q35 -11 69 -12h295q34 1 69 12q107 36 107 148v580q0 17 11 28
q12 12 28 12h103q19 0 31 -17q7 -11 7 -22v-257zM455 232v102q0 18 12 29q12 13 29 13h106q20 0 33 -18q7 -11 7 -23v-106q0 -20 -19 -34q-9 -6 -26 -6h-98q-31 0 -42 29q-2 8 -2 14z" />
    <glyph glyph-name="uni0646.init" unicode="&#x646;" horiz-adv-x="448" arabic-form="initial" 
d="M3 0q-16 0 -25 6q-18 13 -18 32v103q0 11 7 22q12 17 31 17h106q75 0 103.5 31t28.5 107v243q0 11 7 22q12 17 31 17h102q16 0 28 -12q11 -11 11 -28v-25h1v-242q0 -119 -69 -203q-74 -90 -189 -90h-155zM43 843v102q0 18 12 29q12 13 29 13h106q20 0 33 -18q7 -11 7 -23
v-106q0 -20 -19 -34q-9 -6 -26 -6h-98q-31 0 -42 29q-2 8 -2 14z" />
    <glyph glyph-name="uni0646.medi" unicode="&#x646;" horiz-adv-x="500" arabic-form="medial" 
d="M107 180q75 0 103.5 30.5t28.5 107.5v242q0 17 11 28q12 12 28 12h106q19 0 31 -17q7 -11 7 -22v-243q0 -138 88 -138v-180q-104 0 -176 70q-92 -70 -174 -70h-154q-30 0 -40 28q-2 7 -2 13v99q0 17 11 28q12 12 28 12h104zM43 843v102q0 18 12 29q12 13 29 13h106
q20 0 33 -18q7 -11 7 -23v-106q0 -20 -19 -34q-9 -6 -26 -6h-98q-31 0 -42 29q-2 8 -2 14z" />
    <glyph glyph-name="uni0647.isol" unicode="&#x647;" horiz-adv-x="800" arabic-form="isolated" 
d="M788 305q0 -140 -107 -234q-103 -91 -245 -91q-147 0 -241.5 100.5t-94.5 248.5q0 154 153 307l122 122l329 -230q84 -87 84 -223z" />
    <glyph glyph-name="uni0647.fina" unicode="&#x647;" horiz-adv-x="1100" arabic-form="final" 
d="M1108 0v0q-78 0 -132 31q-27 16 -188 165q-102 -216 -329 -216q-149 0 -246 97t-97 246q0 156 158 323l22 22q2 3 5 6l66 71q7 8 16 11l24 1q9 -2 16 -8l74 -69q3 -3 5 -6l432 -379q68 -72 92 -87q33 -20 82 -28v-180z" />
    <glyph glyph-name="uni0647.init" unicode="&#x647;" horiz-adv-x="1100" arabic-form="initial" 
d="M1057 239q0 -119 -89 -214t-206 -95q-143 0 -370 133q-116 -59 -259 -60l-143 -3v180h193q-99 130 -99 248q0 128 82 210.5t211 82.5q116 0 216 -97l-118 122l135 122q447 -427 447 -629zM868 228q0 108 -238 348q55 -62 55 -171q0 -172 -111 -229q102 -61 176 -61
q118 0 118 113z" />
    <glyph glyph-name="uni0647.medi" unicode="&#x647;" horiz-adv-x="1200" arabic-form="medial" 
d="M858 228q0 108 -238 348q55 -62 55 -171q0 -172 -111 -229q102 -61 176 -61q118 0 118 113zM995 72q-16 -24 -37 -47q-89 -95 -206 -95q-143 0 -370 133q-116 -59 -259 -60l-143 -3v180h193q-99 130 -99 248q0 128 82 210.5t211 82.5q116 0 216 -97l-118 122l135 122
q343 -328 415 -523q64 -122 129 -153q35 -11 69 -12v-180q-126 0 -218 72z" />
    </font>
</defs>
</svg>
