<svg xmlns="http://www.w3.org/2000/svg" width="600" height="400" viewBox="0 0 600 400"><rect width="100%" height="100%" fill="#DDDDDD"/><path fill="#999999" d="M149.075 201.165h14.67q5.41 0 9.42-1.35 4.02-1.35 6.68-3.87 2.67-2.51 3.98-6.13 1.31-3.61 1.31-8.07 0-4.23-1.31-7.66-1.31-3.43-3.94-5.84-2.63-2.41-6.65-3.69-4.01-1.27-9.49-1.27h-14.67v37.88Zm-19.64-53.07h34.31q10.59 0 18.33 2.48 7.73 2.49 12.77 6.94 5.04 4.45 7.48 10.66 2.45 6.2 2.45 13.57 0 7.67-2.56 14.06-2.55 6.39-7.66 10.98-5.11 4.6-12.81 7.16-7.7 2.55-18 2.55h-14.67v37.16h-19.64v-105.56Zm101.77 59.5h34.01q0-3.51-.98-6.61-.99-3.1-2.96-5.44-1.97-2.33-5-3.68-3.03-1.35-7.04-1.35-7.81 0-12.3 4.45-4.49 4.45-5.73 12.63Zm45.99 10.87h-46.36q.44 5.77 2.04 9.97 1.61 4.2 4.24 6.93 2.63 2.74 6.24 4.09 3.61 1.35 7.99 1.35 4.38 0 7.56-1.02 3.17-1.02 5.55-2.26 2.37-1.24 4.16-2.27 1.79-1.02 3.47-1.02 2.26 0 3.35 1.68l5.19 6.57q-3 3.51-6.72 5.88-3.72 2.37-7.77 3.79-4.06 1.43-8.25 2.01-4.2.58-8.14.58-7.81 0-14.53-2.59t-11.68-7.66q-4.96-5.07-7.81-12.56-2.85-7.48-2.85-17.33 0-7.67 2.48-14.42 2.49-6.75 7.12-11.76 4.64-5 11.32-7.92 6.68-2.92 15.07-2.92 7.08 0 13.07 2.27 5.98 2.26 10.29 6.6 4.31 4.35 6.75 10.66 2.45 6.32 2.45 14.42 0 4.09-.88 5.51-.87 1.42-3.35 1.42Zm17.95-73.29h18.03v108.48h-18.03v-108.48Zm75.63 89.14v-12.63q-7.81.36-13.14 1.35-5.33.98-8.54 2.52-3.21 1.53-4.6 3.57-1.39 2.05-1.39 4.46 0 4.74 2.82 6.78 2.81 2.05 7.33 2.05 5.55 0 9.6-2.01t7.92-6.09Zm-38.1-39.35-3.22-5.77q12.92-11.82 31.1-11.82 6.57 0 11.75 2.15 5.19 2.15 8.76 5.98 3.58 3.84 5.44 9.17 1.87 5.33 1.87 11.68v47.3h-8.18q-2.56 0-3.94-.77-1.39-.76-2.19-3.1l-1.61-5.4q-2.85 2.55-5.55 4.49-2.7 1.93-5.62 3.25-2.92 1.31-6.24 2-3.32.7-7.34.7-4.74 0-8.76-1.28-4.01-1.28-6.93-3.83-2.92-2.56-4.53-6.35-1.6-3.8-1.6-8.84 0-2.84.95-5.65.94-2.81 3.1-5.37 2.15-2.55 5.58-4.82 3.43-2.26 8.43-3.94 5-1.68 11.65-2.74 6.64-1.05 15.18-1.27v-4.38q0-7.52-3.21-11.14-3.21-3.61-9.27-3.61-4.38 0-7.26 1.02-2.89 1.02-5.08 2.3-2.19 1.28-3.98 2.3-1.79 1.02-3.98 1.02-1.89 0-3.21-.98-1.31-.99-2.11-2.3Zm88.25-12.92 1.24 5.91q2.27-2.26 4.79-4.2 2.51-1.93 5.32-3.28 2.82-1.35 6.03-2.12 3.21-.77 7-.77 6.14 0 10.88 2.08 4.75 2.08 7.92 5.84 3.18 3.76 4.82 8.98 1.64 5.22 1.64 11.5v47.67h-18.03v-47.67q0-6.86-3.14-10.62-3.14-3.76-9.56-3.76-4.67 0-8.76 2.12-4.09 2.11-7.74 5.76v54.17h-18.03v-74.9h11.02q3.51 0 4.6 3.29Z"/></svg>